<svg xmlns="http://www.w3.org/2000/svg" width="72" height="72" viewBox="0 0 72 72">
  <g id="Grupo_1220167" data-name="Grupo 1220167" transform="translate(-263.051 -3352)">
    <circle id="Elipse_13612" data-name="Elipse 13612" cx="36" cy="36" r="36" transform="translate(263.051 3352)" fill="#c2d0f8"/>
    <circle id="Elipse_13613" data-name="Elipse 13613" cx="29" cy="29" r="29" transform="translate(270.051 3359)" fill="#fff"/>
    <path id="Trazado_1307453" data-name="Trazado 1307453" d="M17.188-9.3q0,4.609-2.07,7.109A7.154,7.154,0,0,1,9.281.313,7.193,7.193,0,0,1,3.406-2.2Q1.328-4.719,1.328-9.3v-4.156q0-4.609,2.07-7.109a7.172,7.172,0,0,1,5.852-2.5,7.175,7.175,0,0,1,5.859,2.516q2.078,2.516,2.078,7.109Zm-5.266-4.828a8.114,8.114,0,0,0-.641-3.664A2.141,2.141,0,0,0,9.25-19a2.091,2.091,0,0,0-1.977,1.125,7.644,7.644,0,0,0-.664,3.406v5.813A8.175,8.175,0,0,0,7.25-4.93,2.149,2.149,0,0,0,9.281-3.75,2.121,2.121,0,0,0,11.266-4.9a7.8,7.8,0,0,0,.656-3.6Zm12.813.547h2.484q2.953,0,2.953-2.891a2.5,2.5,0,0,0-.7-1.836,2.666,2.666,0,0,0-1.984-.711,2.854,2.854,0,0,0-1.82.609,1.859,1.859,0,0,0-.773,1.516H19.625a5.39,5.39,0,0,1,1-3.2,6.6,6.6,0,0,1,2.773-2.2,9.482,9.482,0,0,1,3.9-.789,9.317,9.317,0,0,1,5.969,1.734,5.766,5.766,0,0,1,2.172,4.766,4.806,4.806,0,0,1-.9,2.773,6.4,6.4,0,0,1-2.617,2.117A6.116,6.116,0,0,1,34.766-9.7a5.246,5.246,0,0,1,1.031,3.3,5.87,5.87,0,0,1-2.344,4.875A9.729,9.729,0,0,1,27.3.313a10.089,10.089,0,0,1-4.148-.852A6.5,6.5,0,0,1,20.25-2.9a6.134,6.134,0,0,1-.984-3.43h5.3a2.371,2.371,0,0,0,.844,1.813,2.979,2.979,0,0,0,2.078.766A3.12,3.12,0,0,0,29.7-4.523,2.585,2.585,0,0,0,30.531-6.5a3.022,3.022,0,0,0-.859-2.437A3.592,3.592,0,0,0,27.3-9.656H24.734Z" transform="translate(280.051 3398)" fill="#c2d0f8"/>
  </g>
</svg>
