<svg xmlns="http://www.w3.org/2000/svg" width="85" height="85" viewBox="0 0 85 85">
  <g id="Grupo_1230901" data-name="Grupo 1230901" transform="translate(-180.051 -1511)">
    <g id="Grupo_1230900" data-name="Grupo 1230900">
      <g id="Elipse_13600" data-name="Elipse 13600" transform="translate(180.051 1511)" fill="none" stroke="#678aee" stroke-width="1" stroke-dasharray="7 3">
        <circle cx="42.5" cy="42.5" r="42.5" stroke="none"/>
        <circle cx="42.5" cy="42.5" r="42" fill="none"/>
      </g>
      <path id="Trazado_1285824" data-name="Trazado 1285824" d="M36.5,0A36.5,36.5,0,1,1,0,36.5,36.5,36.5,0,0,1,36.5,0Z" transform="translate(186.051 1517)" fill="#d6d1e2"/>
    </g>
    <g id="_x31_1" transform="translate(191.343 1519.083)">
      <g id="Grupo_1222641" data-name="Grupo 1222641" transform="translate(17.158 2.501)">
        <g id="Grupo_1222601" data-name="Grupo 1222601">
          <g id="Grupo_1222589" data-name="Grupo 1222589">
            <g id="Grupo_1222588" data-name="Grupo 1222588">
              <g id="Grupo_1222575" data-name="Grupo 1222575">
                <path id="Trazado_1295147" data-name="Trazado 1295147" d="M39.073,3.836,17.39,63l-2.047-1.188a1.559,1.559,0,0,1-.657-1.44L14.56,17.381a4.8,4.8,0,0,1,2.186-3.765L35.472,2.8a1.541,1.541,0,0,1,1.554-.152Z" transform="translate(-14.56 -2.501)" fill="#9ea9c9"/>
              </g>
              <g id="Grupo_1222576" data-name="Grupo 1222576" transform="translate(2.048 1.186)">
                <path id="Trazado_1295148" data-name="Trazado 1295148" d="M37.092,3.739c1.207-.7,2.189-.137,2.193,1.249l.122,43.053a4.8,4.8,0,0,1-2.178,3.773L18.562,62.593c-1.243.718-2.255.141-2.259-1.288l-.122-42.978a4.8,4.8,0,0,1,2.178-3.773Z" transform="translate(-16.181 -3.44)" fill="#e3e7f0"/>
              </g>
              <g id="Grupo_1222577" data-name="Grupo 1222577" transform="translate(2.572 1.71)">
                <path id="Trazado_1295149" data-name="Trazado 1295149" d="M17.442,62.269c-.652,0-.724-.751-.725-1.074L16.6,18.217A4.294,4.294,0,0,1,18.512,14.9L37.245,4.083a1.5,1.5,0,0,1,.719-.23c.619,0,.688.718.688,1.027l.122,43.053a4.294,4.294,0,0,1-1.917,3.318L18.191,62.03a1.557,1.557,0,0,1-.748.239Z" transform="translate(-16.595 -3.854)" fill="#38425d"/>
              </g>
              <g id="Grupo_1222578" data-name="Grupo 1222578" transform="translate(2.931 2.068)">
                <path id="Trazado_1295150" data-name="Trazado 1295150" d="M38.335,47.869A3.947,3.947,0,0,1,36.6,50.863L17.929,61.641a1.159,1.159,0,0,1-.556.189c-.114,0-.2-.038-.278-.2a1.332,1.332,0,0,1-.088-.505L16.88,18.137a3.969,3.969,0,0,1,1.744-3.007l18.726-10.8a1.081,1.081,0,0,1,.543-.189c.1,0,.177.038.24.189a1.178,1.178,0,0,1,.076.48Z" transform="translate(-16.88 -4.137)" fill="#5094ff"/>
              </g>
              <g id="Grupo_1222579" data-name="Grupo 1222579" transform="translate(2.931 2.068)">
                <path id="Trazado_1295151" data-name="Trazado 1295151" d="M38.209,4.807l.009,2.977L16.892,20.69l-.013-2.552a3.925,3.925,0,0,1,1.744-2.995L37.349,4.327a1.081,1.081,0,0,1,.543-.189c.1,0,.177.038.24.189a1.178,1.178,0,0,1,.076.48Z" transform="translate(-16.88 -4.137)" fill="#e3e7f0"/>
              </g>
              <g id="Grupo_1222582" data-name="Grupo 1222582" transform="translate(18.454 1.71)">
                <g id="Grupo_1222580" data-name="Grupo 1222580">
                  <path id="Trazado_1295152" data-name="Trazado 1295152" d="M30.872,4.019a1.6,1.6,0,0,0-1.413,0c-.345.2-.387.5-.126.722a.653.653,0,0,1,.126-.094,1.6,1.6,0,0,1,1.413,0L31,4.741C31.248,4.521,31.206,4.218,30.872,4.019Z" transform="translate(-29.165 -3.854)" fill="#eaefef"/>
                </g>
                <g id="Grupo_1222581" data-name="Grupo 1222581" transform="translate(0.169 0.628)">
                  <path id="Trazado_1295153" data-name="Trazado 1295153" d="M29.424,4.516a.653.653,0,0,0-.126.094.653.653,0,0,0,.126.094,1.531,1.531,0,0,0,1.413,0,.875.875,0,0,0,.126-.084V4.61l-.126-.094A1.6,1.6,0,0,0,29.424,4.516Z" transform="translate(-29.298 -4.351)" fill="#434240"/>
                </g>
              </g>
              <g id="Grupo_1222583" data-name="Grupo 1222583" transform="translate(4.594 13.282)">
                <path id="Trazado_1295154" data-name="Trazado 1295154" d="M19.407,13.039a.136.136,0,0,1,.141-.012c.074.047.071.189-.006.319L18.671,14.8l.876.449c.078.04.081.179.008.31a.4.4,0,0,1-.14.15.141.141,0,0,1-.134.016L18.257,15.2a.134.134,0,0,1-.061-.127.4.4,0,0,1,.06-.2l1.018-1.7a.391.391,0,0,1,.133-.138Z" transform="translate(-18.196 -13.012)" fill="#9ea9c9"/>
              </g>
              <g id="Grupo_1222585" data-name="Grupo 1222585" transform="translate(9.25 7.065)">
                <g id="Grupo_1222584" data-name="Grupo 1222584">
                  <path id="Trazado_1295155" data-name="Trazado 1295155" d="M30.434,8.157c.261-.151.472-.031.473.269a1.032,1.032,0,0,1-.47.813l-8.084,4.667c-.261.151-.472.031-.473-.269a1.032,1.032,0,0,1,.469-.813Z" transform="translate(-21.881 -8.092)" fill="#9ea9c9"/>
                </g>
              </g>
              <g id="Grupo_1222586" data-name="Grupo 1222586" transform="translate(21.242 3.902)">
                <path id="Trazado_1295156" data-name="Trazado 1295156" d="M33.115,6.207a1.916,1.916,0,0,1-.87,1.508c-.482.277-.875.055-.875-.5a1.919,1.919,0,0,1,.867-1.506c.484-.277.875-.055.877.5Z" transform="translate(-31.371 -5.589)" fill="#9ea9c9"/>
              </g>
              <g id="Grupo_1222587" data-name="Grupo 1222587" transform="translate(21.593 4.354)">
                <path id="Trazado_1295157" data-name="Trazado 1295157" d="M32.692,6.316a1.145,1.145,0,0,1-.52.9c-.288.166-.523.033-.523-.3a1.147,1.147,0,0,1,.519-.9C32.457,5.852,32.69,5.985,32.692,6.316Z" transform="translate(-31.649 -5.947)" fill="#eaefef"/>
              </g>
            </g>
          </g>
          <g id="Grupo_1222600" data-name="Grupo 1222600" transform="translate(0.319 18.105)">
            <g id="Grupo_1222594" data-name="Grupo 1222594" transform="translate(0 6.236)">
              <g id="Grupo_1222591" data-name="Grupo 1222591" transform="translate(0.098)">
                <g id="Grupo_1222590" data-name="Grupo 1222590">
                  <path id="Trazado_1295158" data-name="Trazado 1295158" d="M16.242,22.653l-.013,4.359a.237.237,0,0,1-.088.2l-.278.164-.973-5.433.278-.164a.227.227,0,0,1,.215.025l.556.316a.7.7,0,0,1,.3.531Z" transform="translate(-14.89 -21.764)" fill="#111d33"/>
                </g>
              </g>
              <g id="Grupo_1222593" data-name="Grupo 1222593" transform="translate(0 0.158)">
                <g id="Grupo_1222592" data-name="Grupo 1222592">
                  <path id="Trazado_1295159" data-name="Trazado 1295159" d="M15.679,22.25a.673.673,0,0,1,.306.529l-.012,4.363c0,.194-.138.272-.308.175L15.118,27a.672.672,0,0,1-.305-.529l.012-4.363c0-.194.138-.273.307-.175Z" transform="translate(-14.813 -21.89)" fill="#4c5c75"/>
                </g>
              </g>
            </g>
            <g id="Grupo_1222599" data-name="Grupo 1222599" transform="translate(0.017)">
              <g id="Grupo_1222596" data-name="Grupo 1222596" transform="translate(0.106)">
                <g id="Grupo_1222595" data-name="Grupo 1222595">
                  <path id="Trazado_1295160" data-name="Trazado 1295160" d="M16.249,17.724l-.013,4.359a.2.2,0,0,1-.088.19l-.278.164L14.91,17l.265-.152a.245.245,0,0,1,.227.013l.543.329a.663.663,0,0,1,.3.531Z" transform="translate(-14.91 -16.829)" fill="#111d33"/>
                </g>
              </g>
              <g id="Grupo_1222598" data-name="Grupo 1222598" transform="translate(0 0.159)">
                <g id="Grupo_1222597" data-name="Grupo 1222597">
                  <path id="Trazado_1295161" data-name="Trazado 1295161" d="M15.692,17.316a.673.673,0,0,1,.306.529l-.012,4.363c0,.194-.138.273-.308.175l-.546-.319a.673.673,0,0,1-.305-.529l.012-4.363c0-.194.138-.273.307-.175Z" transform="translate(-14.826 -16.955)" fill="#4c5c75"/>
                </g>
              </g>
            </g>
          </g>
        </g>
        <g id="Grupo_1222640" data-name="Grupo 1222640" transform="translate(4.246 10.014)">
          <g id="Grupo_1222610" data-name="Grupo 1222610">
            <g id="Grupo_1222602" data-name="Grupo 1222602" transform="translate(0.051 19.394)">
              <path id="Trazado_1295162" data-name="Trazado 1295162" d="M36.408,26.422,19.3,52.83l-1.011-.581a.666.666,0,0,1-.278-.619L17.96,36.682a2.076,2.076,0,0,1,.948-1.643L34.727,25.9a.68.68,0,0,1,.682-.063Z" transform="translate(-17.96 -25.776)" fill="#b0b8cf"/>
            </g>
            <g id="Grupo_1222604" data-name="Grupo 1222604" transform="translate(1.062 19.975)">
              <g id="Grupo_1222603" data-name="Grupo 1222603">
                <path id="Trazado_1295163" data-name="Trazado 1295163" d="M35.521,26.367c.529-.305.959-.06.96.547l.042,14.947a2.1,2.1,0,0,1-.954,1.652L19.754,52.644c-.529.305-.949.055-.951-.552l-.042-14.947a2.083,2.083,0,0,1,.945-1.647Z" transform="translate(-18.761 -26.235)" fill="#e3e7f0"/>
              </g>
            </g>
            <g id="Grupo_1222609" data-name="Grupo 1222609">
              <g id="Grupo_1222606" data-name="Grupo 1222606">
                <g id="Grupo_1222605" data-name="Grupo 1222605">
                  <path id="Trazado_1295164" data-name="Trazado 1295164" d="M36.368,11.085,19.247,37.493l-1-.594a.669.669,0,0,1-.291-.619L17.92,21.345a2.08,2.08,0,0,1,.948-1.655l15.82-9.123a.637.637,0,0,1,.67-.076Z" transform="translate(-17.92 -10.426)" fill="#b0b8cf"/>
                </g>
              </g>
              <g id="Grupo_1222608" data-name="Grupo 1222608" transform="translate(1.008 0.587)">
                <g id="Grupo_1222607" data-name="Grupo 1222607">
                  <path id="Trazado_1295165" data-name="Trazado 1295165" d="M35.478,11.023c.529-.305.959-.06.96.547l.042,14.947a2.1,2.1,0,0,1-.954,1.652L19.711,37.3c-.529.305-.949.055-.951-.552L18.717,21.8a2.083,2.083,0,0,1,.945-1.647Z" transform="translate(-18.717 -10.891)" fill="#e3e7f0"/>
                </g>
              </g>
            </g>
          </g>
          <g id="Grupo_1222621" data-name="Grupo 1222621" transform="translate(2.377 11.311)">
            <g id="Grupo_1222620" data-name="Grupo 1222620">
              <g id="Grupo_1222611" data-name="Grupo 1222611" transform="translate(11.397)">
                <path id="Trazado_1295166" data-name="Trazado 1295166" d="M32.915,20.212l-4.094,2.35v-.834l4.094-2.35Z" transform="translate(-28.821 -19.378)" fill="#b0b8cf"/>
              </g>
              <g id="Grupo_1222612" data-name="Grupo 1222612" transform="translate(12.004 4.802)">
                <path id="Trazado_1295167" data-name="Trazado 1295167" d="M29.3,24.252l1.883-1.074v.847L29.3,25.1Z" transform="translate(-29.301 -23.178)" fill="#b0b8cf"/>
              </g>
              <g id="Grupo_1222613" data-name="Grupo 1222613" transform="translate(7.922 1.933)">
                <path id="Trazado_1295168" data-name="Trazado 1295168" d="M26.084,26.114l-.013-.847,7.569-4.359v.834Z" transform="translate(-26.071 -20.908)" fill="#b0b8cf"/>
              </g>
              <g id="Grupo_1222614" data-name="Grupo 1222614" transform="translate(14.354 3.866)">
                <path id="Trazado_1295169" data-name="Trazado 1295169" d="M32.311,23.285l-1.15.67v-.847l1.137-.67Z" transform="translate(-31.161 -22.438)" fill="#b0b8cf"/>
              </g>
              <g id="Grupo_1222615" data-name="Grupo 1222615" transform="translate(0 4.283)">
                <path id="Trazado_1295170" data-name="Trazado 1295170" d="M27.85,23.6,19.8,28.252v-.834l8.049-4.65Z" transform="translate(-19.801 -22.768)" fill="#b0b8cf"/>
              </g>
              <g id="Grupo_1222616" data-name="Grupo 1222616" transform="translate(0.013 6.381)">
                <path id="Trazado_1295171" data-name="Trazado 1295171" d="M30.931,24.428l.013.847L19.811,31.706V30.86Z" transform="translate(-19.811 -24.428)" fill="#b0b8cf"/>
              </g>
              <g id="Grupo_1222617" data-name="Grupo 1222617" transform="translate(0 8.238)">
                <path id="Trazado_1295172" data-name="Trazado 1295172" d="M19.814,29.373l-.013-.834L24.375,25.9v.834Z" transform="translate(-19.801 -25.898)" fill="#b0b8cf"/>
              </g>
              <g id="Grupo_1222618" data-name="Grupo 1222618" transform="translate(8.908 2.704)">
                <path id="Trazado_1295173" data-name="Trazado 1295173" d="M26.851,23.452v-.847l1.9-1.087v.821Z" transform="translate(-26.851 -21.518)" fill="#b0b8cf"/>
              </g>
              <g id="Grupo_1222619" data-name="Grupo 1222619" transform="translate(5.433 6.646)">
                <path id="Trazado_1295174" data-name="Trazado 1295174" d="M24.1,26.559v-.821l1.883-1.1v.847Z" transform="translate(-24.101 -24.638)" fill="#b0b8cf"/>
              </g>
            </g>
          </g>
          <g id="Grupo_1222634" data-name="Grupo 1222634" transform="translate(6.857 6.792)">
            <g id="Grupo_1222633" data-name="Grupo 1222633">
              <g id="Grupo_1222623" data-name="Grupo 1222623">
                <g id="Grupo_1222622" data-name="Grupo 1222622">
                  <path id="Trazado_1295175" data-name="Trazado 1295175" d="M28.752,20.655c-.044.108-.1.22-.151.332A7.9,7.9,0,0,1,26.812,22.9a1.666,1.666,0,0,1-.161.117c-.088.059-.176.112-.259.161s-.186.1-.279.147c-.059.024-.112.049-.166.073a1.823,1.823,0,0,1-1.877-.117,2.234,2.234,0,0,1-.723-1.833,6.666,6.666,0,0,1,3.025-5.234c2.317-1.339,4.037.665,2.38,4.437Z" transform="translate(-23.347 -15.802)" fill="#fff"/>
                </g>
              </g>
              <g id="Grupo_1222632" data-name="Grupo 1222632" transform="translate(0.739 1.056)">
                <g id="Grupo_1222625" data-name="Grupo 1222625" transform="translate(0 3.679)">
                  <g id="Grupo_1222624" data-name="Grupo 1222624">
                    <path id="Trazado_1295176" data-name="Trazado 1295176" d="M28.594,19.675c-.038.1-.1.215-.139.329a8.015,8.015,0,0,1-1.794,1.908v.013c-.051.051-.114.076-.152.114-.088.051-.177.114-.265.164s-.177.1-.278.152a1,1,0,0,0-.177.063,1.8,1.8,0,0,1-1.857-.114,1.044,1.044,0,0,1,.19-.291,10.58,10.58,0,0,1,1.137-1.251c.038-.051.253-.278.253-.291l.013.013a.479.479,0,0,0,.2.455.518.518,0,0,0,.341.025.615.615,0,0,1,.088-.038.42.42,0,0,1,.076-.038c.013-.013.038-.013.051-.038.038-.013.063-.051.1-.063a1.616,1.616,0,0,0,.543-1.112v-.013a.785.785,0,0,1,.2-.013h.051a3.911,3.911,0,0,1,1.162-.076.562.562,0,0,1,.253.1Z" transform="translate(-23.931 -19.549)" fill="#5ec363"/>
                  </g>
                </g>
                <g id="Grupo_1222627" data-name="Grupo 1222627" transform="translate(1.587 3.322)">
                  <g id="Grupo_1222626" data-name="Grupo 1222626">
                    <path id="Trazado_1295177" data-name="Trazado 1295177" d="M26.59,19.266v.479a1.563,1.563,0,0,1-.542,1.1,1.1,1.1,0,0,1-.157.111.79.79,0,0,1-.159.071.419.419,0,0,1-.337-.021.49.49,0,0,1-.207-.451v-.419a.652.652,0,0,0,.6.062.579.579,0,0,0,.107-.049.686.686,0,0,0,.078-.052A2.284,2.284,0,0,0,26.59,19.266Z" transform="translate(-25.187 -19.266)" fill="#f5c9c6"/>
                  </g>
                </g>
                <g id="Grupo_1222629" data-name="Grupo 1222629" transform="translate(1.077)">
                  <g id="Grupo_1222628" data-name="Grupo 1222628">
                    <path id="Trazado_1295178" data-name="Trazado 1295178" d="M26.017,16.862c1.242-.717,1.154.507,1.149.572a3.059,3.059,0,0,1-.031.6,2.206,2.206,0,0,1-.211.7,1.322,1.322,0,0,0,.01-.252,2.758,2.758,0,0,0-.074-.619c-.031-.1-.08-.1-.124-.078a.23.23,0,0,0-.049.04.472.472,0,0,0-.056.072,3.053,3.053,0,0,1-.16.291,1.648,1.648,0,0,1-.429.5L26,18.708a.789.789,0,0,1-.405.119.523.523,0,0,1-.365-.14.13.13,0,0,0-.077.017.443.443,0,0,0-.142.317l0,.012a3.931,3.931,0,0,0,0,.835l0,0-.08-.125-.007-.016-.01-.024,0-.009,0-.008a1.544,1.544,0,0,1-.08-.3,4.177,4.177,0,0,1-.037-.859A2.39,2.39,0,0,1,25.9,16.93q.058-.037.113-.068Z" transform="translate(-24.784 -16.637)" fill="#8a4852"/>
                  </g>
                </g>
                <g id="Grupo_1222631" data-name="Grupo 1222631" transform="translate(0.846 1.133)">
                  <g id="Grupo_1222630" data-name="Grupo 1222630">
                    <path id="Trazado_1295179" data-name="Trazado 1295179" d="M26.785,17.547c.044-.026.093-.021.124.078a2.758,2.758,0,0,1,.074.619,1.31,1.31,0,0,1-.01.252,2.269,2.269,0,0,0,.211-.7c.054-.029.3-.142.266.246a2.316,2.316,0,0,1-.451.971,3.74,3.74,0,0,1-.254.712,2.284,2.284,0,0,1-.616.831.687.687,0,0,1-.078.052.58.58,0,0,1-.107.049.652.652,0,0,1-.6-.062.77.77,0,0,1-.257-.435.689.689,0,0,1-.482-.521.6.6,0,0,1,.116-.383.325.325,0,0,1,.1-.092.136.136,0,0,1,.061-.02,1.542,1.542,0,0,0,.079.3l0,.009.01.023c.1.155.042-.332.092-.68l0-.011a.443.443,0,0,1,.142-.317.13.13,0,0,1,.077-.017.522.522,0,0,0,.365.14.789.789,0,0,0,.405-.119l.039-.023a1.648,1.648,0,0,0,.429-.5,3.055,3.055,0,0,0,.16-.291.472.472,0,0,1,.056-.072A.23.23,0,0,1,26.785,17.547Z" transform="translate(-24.601 -17.534)" fill="#f4d6d4"/>
                  </g>
                </g>
              </g>
            </g>
          </g>
          <g id="Grupo_1222637" data-name="Grupo 1222637" transform="translate(5.511 27.533)">
            <g id="Grupo_1222636" data-name="Grupo 1222636">
              <g id="Grupo_1222635" data-name="Grupo 1222635">
                <path id="Trazado_1295180" data-name="Trazado 1295180" d="M31.152,35.365a9.747,9.747,0,0,1-4.422,7.67c-2.439,1.415-4.448.278-4.448-2.552A9.725,9.725,0,0,1,26.7,32.825C29.155,31.41,31.139,32.547,31.152,35.365Z" transform="translate(-22.281 -32.217)" fill="#f45170"/>
              </g>
            </g>
          </g>
          <g id="Grupo_1222639" data-name="Grupo 1222639" transform="translate(8.683 31.698)">
            <g id="Grupo_1222638" data-name="Grupo 1222638">
              <path id="Trazado_1295181" data-name="Trazado 1295181" d="M28.144,35.926,24.8,40.211l-.012-4.7Z" transform="translate(-24.792 -35.513)" fill="#fff"/>
            </g>
          </g>
        </g>
      </g>
      <g id="Grupo_1222646" data-name="Grupo 1222646" transform="translate(4.7 18.626)">
        <g id="Grupo_1222642" data-name="Grupo 1222642">
          <path id="Trazado_1295182" data-name="Trazado 1295182" d="M14.922,15.9l-9,12.863L4.9,28.157a.444.444,0,0,1-.189-.417l-.013-6.6a1.394,1.394,0,0,1,.644-1.112l8.1-4.688a.487.487,0,0,1,.468-.038Z" transform="translate(-4.7 -15.263)" fill="#febc1f"/>
        </g>
        <g id="Grupo_1222643" data-name="Grupo 1222643" transform="translate(1.013 0.563)">
          <path id="Trazado_1295183" data-name="Trazado 1295183" d="M14.254,15.8c.359-.207.648-.039.649.374l.019,6.595a1.424,1.424,0,0,1-.645,1.121l-2.461,1.421-1.589,3.425-1.6-1.586L6.17,28.568c-.359.207-.648.039-.649-.374L5.5,21.6a1.424,1.424,0,0,1,.645-1.121Z" transform="translate(-5.502 -15.708)" fill="#ffde9b"/>
        </g>
        <g id="Grupo_1222645" data-name="Grupo 1222645" transform="translate(3.192 3.895)">
          <g id="Grupo_1222644" data-name="Grupo 1222644">
            <path id="Trazado_1295184" data-name="Trazado 1295184" d="M10.741,19.059a.814.814,0,0,1,.773-.079,2.92,2.92,0,0,0,.63-.635,1.618,1.618,0,0,1-.4.863,2.713,2.713,0,0,0,.543-.461,2.551,2.551,0,0,1-.495.884,5.567,5.567,0,0,1-1.244,3.652,5.8,5.8,0,0,1-1.7,1.567,3.009,3.009,0,0,1-1.622.444s.031-.016.085-.047a4.155,4.155,0,0,0,1.411-1.321c-.04.016-.8.312-.923-.28l.425-.271c-.041.01-.826.193-.8-.725l.413-.1c-.032-.011-.718-.216-.284-1.456a1.861,1.861,0,0,0,2,.1q.072-.042.145-.092a2.077,2.077,0,0,1,.63-1.7,1.75,1.75,0,0,1,.412-.334Z" transform="translate(-7.226 -18.345)" fill="#4c5c75"/>
          </g>
        </g>
      </g>
      <g id="Grupo_1222653" data-name="Grupo 1222653" transform="translate(7.075 46.056)">
        <g id="Grupo_1222652" data-name="Grupo 1222652">
          <g id="Grupo_1222651" data-name="Grupo 1222651">
            <g id="Grupo_1222648" data-name="Grupo 1222648">
              <g id="Grupo_1222647" data-name="Grupo 1222647">
                <path id="Trazado_1295185" data-name="Trazado 1295185" d="M14.161,37.826,8.715,47.214,7.7,46.62A2.671,2.671,0,0,1,6.58,44.143,8.359,8.359,0,0,1,10.421,37.5a2.7,2.7,0,0,1,2.729-.265Z" transform="translate(-6.58 -36.971)" fill="#7e5af2"/>
              </g>
            </g>
            <g id="Grupo_1222650" data-name="Grupo 1222650" transform="translate(1.009 0.59)">
              <g id="Grupo_1222649" data-name="Grupo 1222649">
                <path id="Trazado_1295186" data-name="Trazado 1295186" d="M11.218,37.966c2.125-1.227,3.856-.241,3.863,2.2a8.462,8.462,0,0,1-3.838,6.647c-2.127,1.228-3.858.242-3.865-2.2a8.463,8.463,0,0,1,3.84-6.651Z" transform="translate(-7.378 -37.438)" fill="#b28afd"/>
              </g>
            </g>
          </g>
        </g>
      </g>
      <g id="Grupo_1222655" data-name="Grupo 1222655" transform="translate(9.948 49.246)">
        <g id="Grupo_1222654" data-name="Grupo 1222654">
          <path id="Trazado_1295187" data-name="Trazado 1295187" d="M12.512,41.306,10.858,44.2l-1.695-.951c-.413-.248-.413-1.034,0-1.757a2,2,0,0,1,.765-.785.713.713,0,0,1,.744-.083l.165.124.145-.31a2.4,2.4,0,0,1,.765-.806.791.791,0,0,1,.765-.062c.413.227.413,1.013,0,1.736Z" transform="translate(-8.853 -39.496)" fill="#fff"/>
        </g>
      </g>
      <g id="Grupo_1222672" data-name="Grupo 1222672" transform="translate(43.124 11.775)">
        <g id="Grupo_1222662" data-name="Grupo 1222662" transform="translate(0 0)">
          <g id="Grupo_1222661" data-name="Grupo 1222661">
            <g id="Grupo_1222657" data-name="Grupo 1222657" transform="translate(2.379 13.985)">
              <g id="Grupo_1222656" data-name="Grupo 1222656">
                <path id="Trazado_1295188" data-name="Trazado 1295188" d="M38.014,26.78,37,26.191l-.007-2.645,2.945-2.638Z" transform="translate(-36.993 -20.908)" fill="#ced0ea"/>
              </g>
            </g>
            <g id="Grupo_1222658" data-name="Grupo 1222658">
              <path id="Trazado_1295189" data-name="Trazado 1295189" d="M51.523,10.481,36.373,28.006l-1.011-.581a.581.581,0,0,1-.227-.518l-.025-7.493a1.748,1.748,0,0,1,.8-1.365l14.025-8.1a.619.619,0,0,1,.581-.063Z" transform="translate(-35.11 -9.84)" fill="#ced0ea"/>
            </g>
            <g id="Grupo_1222660" data-name="Grupo 1222660" transform="translate(1.018 0.587)">
              <g id="Grupo_1222659" data-name="Grupo 1222659">
                <path id="Trazado_1295190" data-name="Trazado 1295190" d="M50.738,10.415c.441-.254.8-.055.8.444l.021,7.491a1.746,1.746,0,0,1-.8,1.377l-9.788,5.651-2.68,4.2L38.29,26.93l-1.555.9c-.441.254-.8.058-.8-.455l-.021-7.491a1.742,1.742,0,0,1,.793-1.367Z" transform="translate(-35.916 -10.304)" fill="#e9e7fc"/>
              </g>
            </g>
          </g>
        </g>
        <g id="Grupo_1222671" data-name="Grupo 1222671" transform="translate(2.379 2.641)">
          <g id="Grupo_1222664" data-name="Grupo 1222664">
            <g id="Grupo_1222663" data-name="Grupo 1222663">
              <path id="Trazado_1295191" data-name="Trazado 1295191" d="M49.81,11.973c.177-.1.319-.014.32.189a.7.7,0,0,1-.318.55L37.318,19.926c-.177.1-.325.025-.326-.179a.721.721,0,0,1,.324-.56Z" transform="translate(-36.992 -11.93)" fill="#4c5c75"/>
            </g>
          </g>
          <g id="Grupo_1222666" data-name="Grupo 1222666" transform="translate(0 1.761)">
            <g id="Grupo_1222665" data-name="Grupo 1222665">
              <path id="Trazado_1295192" data-name="Trazado 1295192" d="M49.81,13.366c.177-.1.319-.014.32.189a.7.7,0,0,1-.318.55L37.318,21.319c-.177.1-.325.025-.326-.179a.721.721,0,0,1,.324-.56Z" transform="translate(-36.992 -13.324)" fill="#4c5c75"/>
            </g>
          </g>
          <g id="Grupo_1222668" data-name="Grupo 1222668" transform="translate(0 3.522)">
            <g id="Grupo_1222667" data-name="Grupo 1222667">
              <path id="Trazado_1295193" data-name="Trazado 1295193" d="M49.81,14.76c.177-.1.319-.014.32.189a.7.7,0,0,1-.318.55L37.318,22.713c-.177.1-.325.025-.326-.179a.721.721,0,0,1,.324-.56Z" transform="translate(-36.992 -14.717)" fill="#4c5c75"/>
            </g>
          </g>
          <g id="Grupo_1222670" data-name="Grupo 1222670" transform="translate(0 7.792)">
            <g id="Grupo_1222669" data-name="Grupo 1222669">
              <path id="Trazado_1295194" data-name="Trazado 1295194" d="M45.464,18.139c.177-.1.319-.014.32.189a.7.7,0,0,1-.318.55l-8.148,4.7c-.177.1-.325.025-.326-.179a.721.721,0,0,1,.324-.56Z" transform="translate(-36.993 -18.097)" fill="#4c5c75"/>
            </g>
          </g>
        </g>
      </g>
    </g>
  </g>
</svg>
