<svg xmlns="http://www.w3.org/2000/svg" width="55.194" height="64" viewBox="0 0 55.194 64">
  <g id="_x32_1" transform="translate(-5.759 -2.45)">
    <g id="Grupo_1223077" data-name="Grupo 1223077" transform="translate(18.146 2.45)">
      <g id="Grupo_1223056" data-name="Grupo 1223056">
        <g id="Grupo_1223013" data-name="Grupo 1223013">
          <g id="Grupo_1223003" data-name="Grupo 1223003">
            <g id="Grupo_1222996" data-name="Grupo 1222996">
              <g id="Grupo_1222995" data-name="Grupo 1222995">
                <g id="Grupo_1222992" data-name="Grupo 1222992">
                  <path id="Trazado_1295356" data-name="Trazado 1295356" d="M40.136,4.286,19.074,66.062l-2.754-1.61A2.668,2.668,0,0,1,15.2,61.991l-.133-43.282a8.556,8.556,0,0,1,3.845-6.666L34.628,3a2.686,2.686,0,0,1,2.754-.279Z" transform="translate(-15.069 -2.45)" fill="#111d33"/>
                </g>
                <g id="Grupo_1222994" data-name="Grupo 1222994" transform="translate(2.757 1.591)">
                  <g id="Grupo_1222993" data-name="Grupo 1222993">
                    <path id="Trazado_1295357" data-name="Trazado 1295357" d="M36.681,4.182c2.143-1.237,3.877-.265,3.884,2.2l.123,43.284a8.484,8.484,0,0,1-3.859,6.669l-15.7,9.062c-2.13,1.229-3.864.241-3.871-2.206L17.141,19.9a8.455,8.455,0,0,1,3.846-6.661Z" transform="translate(-17.141 -3.645)" fill="#4c5c75"/>
                  </g>
                </g>
              </g>
            </g>
            <g id="Grupo_1223002" data-name="Grupo 1223002" transform="translate(3.829 2.967)">
              <g id="Grupo_1223001" data-name="Grupo 1223001">
                <g id="Grupo_1222998" data-name="Grupo 1222998" transform="translate(10.239 4.862)">
                  <g id="Grupo_1222997" data-name="Grupo 1222997">
                    <path id="Trazado_1295358" data-name="Trazado 1295358" d="M26.027,8.386c.221-.128.4-.009.4.245a.878.878,0,0,1-.4.676c-.221.128-.388.017-.388-.221A.882.882,0,0,1,26.027,8.386Z" transform="translate(-25.642 -8.334)" fill="#f1f6fa"/>
                  </g>
                </g>
                <g id="Grupo_1223000" data-name="Grupo 1223000">
                  <g id="Grupo_1222999" data-name="Grupo 1222999">
                    <path id="Trazado_1295359" data-name="Trazado 1295359" d="M36.426,5.059c1.535-.886,2.8-.167,2.8,1.613l.123,43.268a6.139,6.139,0,0,1-2.784,4.822l-15.7,9.062c-1.535.886-2.8.167-2.8-1.6l-.123-43.268a6.168,6.168,0,0,1,2.784-4.838L26.76,10.64a.285.285,0,0,1,.43.086c.251.428.749.506,1.3.187l.166-.1a3.211,3.211,0,0,0,1.311-1.7,1.083,1.083,0,0,1,.414-.573Z" transform="translate(-17.946 -4.68)" fill="#f1f6fa"/>
                  </g>
                </g>
              </g>
            </g>
          </g>
          <g id="Grupo_1223012" data-name="Grupo 1223012" transform="translate(0.318 18.244)">
            <g id="Grupo_1223004" data-name="Grupo 1223004" transform="translate(0.227)">
              <path id="Trazado_1295360" data-name="Trazado 1295360" d="M17.062,17.582a.544.544,0,0,1-.213.492l-.293.173-1.078-1.863.293-.173a.527.527,0,0,1,.532.053,1.688,1.688,0,0,1,.758,1.317Z" transform="translate(-15.479 -16.162)" fill="#c9cee2"/>
            </g>
            <g id="Grupo_1223006" data-name="Grupo 1223006" transform="translate(0.008 0.168)">
              <g id="Grupo_1223005" data-name="Grupo 1223005">
                <path id="Trazado_1295361" data-name="Trazado 1295361" d="M16.077,16.391a1.675,1.675,0,0,1,.758,1.313c0,.489-.338.688-.763.442a1.677,1.677,0,0,1-.758-1.321C15.315,16.351,15.658,16.149,16.077,16.391Z" transform="translate(-15.314 -16.288)" fill="#9ea9c9"/>
              </g>
            </g>
            <g id="Grupo_1223011" data-name="Grupo 1223011" transform="translate(0 2.737)">
              <g id="Grupo_1223008" data-name="Grupo 1223008" transform="translate(0.227)">
                <g id="Grupo_1223007" data-name="Grupo 1223007">
                  <path id="Trazado_1295362" data-name="Trazado 1295362" d="M17.062,19.63a.559.559,0,0,1-.226.506l-.279.16-1.078-1.863.279-.16a.521.521,0,0,1,.545.053,1.644,1.644,0,0,1,.758,1.3Z" transform="translate(-15.479 -18.219)" fill="#c9cee2"/>
                </g>
              </g>
              <g id="Grupo_1223010" data-name="Grupo 1223010" transform="translate(0 0.163)">
                <g id="Grupo_1223009" data-name="Grupo 1223009">
                  <path id="Trazado_1295363" data-name="Trazado 1295363" d="M16.071,18.445a1.664,1.664,0,0,1,.758,1.313c0,.489-.338.688-.763.442a1.677,1.677,0,0,1-.758-1.321c0-.482.344-.677.763-.435Z" transform="translate(-15.308 -18.341)" fill="#9ea9c9"/>
                </g>
              </g>
            </g>
          </g>
        </g>
        <g id="Grupo_1223031" data-name="Grupo 1223031" transform="translate(6.569 14.599)">
          <g id="Grupo_1223030" data-name="Grupo 1223030">
            <g id="Grupo_1223029" data-name="Grupo 1223029">
              <g id="Grupo_1223028" data-name="Grupo 1223028">
                <g id="Grupo_1223027" data-name="Grupo 1223027">
                  <g id="Grupo_1223026" data-name="Grupo 1223026">
                    <g id="Grupo_1223025" data-name="Grupo 1223025">
                      <g id="Grupo_1223024" data-name="Grupo 1223024">
                        <g id="Grupo_1223014" data-name="Grupo 1223014">
                          <path id="Trazado_1295364" data-name="Trazado 1295364" d="M35.047,13.538c.468-.27.849-.053.851.486l.032,11.188a1.865,1.865,0,0,1-.845,1.465l-14.2,8.2c-.469.271-.85.054-.852-.485L20.005,23.2a1.864,1.864,0,0,1,.846-1.466Z" transform="translate(-20.005 -13.422)" fill="#ffd475"/>
                        </g>
                        <g id="Grupo_1223023" data-name="Grupo 1223023" transform="translate(0.001 1.055)">
                          <g id="Grupo_1223016" data-name="Grupo 1223016" transform="translate(0 9.165)">
                            <g id="Grupo_1223015" data-name="Grupo 1223015">
                              <path id="Trazado_1295365" data-name="Trazado 1295365" d="M20.006,21.1l.121.016h.006l-.087,0h-.04Z" transform="translate(-20.006 -21.103)" fill="#c4990d"/>
                            </g>
                          </g>
                          <g id="Grupo_1223018" data-name="Grupo 1223018" transform="translate(0)">
                            <g id="Grupo_1223017" data-name="Grupo 1223017">
                              <path id="Trazado_1295366" data-name="Trazado 1295366" d="M35.9,14.215c-2.212,3.344-5.549,7.91-7.928,11.112a64.4,64.4,0,0,1-7.965-1.937,70.1,70.1,0,0,1,7.963.985C30.119,21.5,33.6,16.949,35.9,14.215Z" transform="translate(-20.006 -14.215)" fill="#f9a83d"/>
                            </g>
                          </g>
                          <g id="Grupo_1223020" data-name="Grupo 1223020" transform="translate(9.232 0)">
                            <g id="Grupo_1223019" data-name="Grupo 1223019">
                              <path id="Trazado_1295367" data-name="Trazado 1295367" d="M33.606,14.215,33.635,24.5l-6.69-.878c1.975-2.676,4.879-6.709,6.661-9.4Z" transform="translate(-26.945 -14.215)" fill="#ffb961"/>
                            </g>
                          </g>
                          <g id="Grupo_1223022" data-name="Grupo 1223022" transform="translate(0 9.176)">
                            <g id="Grupo_1223021" data-name="Grupo 1223021">
                              <path id="Trazado_1295368" data-name="Trazado 1295368" d="M20.006,21.111A58.836,58.836,0,0,0,26.7,22.806l-6.664,8.587Z" transform="translate(-20.006 -21.111)" fill="#ffb961"/>
                            </g>
                          </g>
                        </g>
                      </g>
                    </g>
                  </g>
                </g>
              </g>
            </g>
          </g>
        </g>
        <g id="Grupo_1223037" data-name="Grupo 1223037" transform="translate(5.333 45.657)">
          <g id="Grupo_1223036" data-name="Grupo 1223036">
            <g id="Grupo_1223032" data-name="Grupo 1223032" transform="translate(9.814 2.833)">
              <path id="Trazado_1295369" data-name="Trazado 1295369" d="M30.108,39.235l.013,3.105a1.043,1.043,0,0,1-.485.826l-2.7,1.559c-.262.157-.472.039-.472-.275l-.013-3.105a1.064,1.064,0,0,1,.472-.825l2.712-1.559c.262-.157.472-.026.472.275Z" transform="translate(-26.453 -38.893)" fill="#b28afd"/>
            </g>
            <g id="Grupo_1223033" data-name="Grupo 1223033" transform="translate(0 8.504)">
              <path id="Trazado_1295370" data-name="Trazado 1295370" d="M22.745,43.487v3.105a1.029,1.029,0,0,1-.472.826l-2.712,1.559c-.262.157-.472.039-.472-.275L19.076,45.6a1.02,1.02,0,0,1,.472-.812l2.712-1.559c.262-.157.485-.039.485.262Z" transform="translate(-19.076 -43.155)" fill="#6bb4f9"/>
            </g>
            <g id="Grupo_1223034" data-name="Grupo 1223034" transform="translate(4.905 5.666)">
              <path id="Trazado_1295371" data-name="Trazado 1295371" d="M26.435,44.465a1.056,1.056,0,0,1-.479.825l-2.7,1.557c-.266.16-.479.04-.479-.266l-.013-3.113a1.077,1.077,0,0,1,.479-.825l2.7-1.557c.266-.146.479-.027.479.279Z" transform="translate(-22.763 -41.023)" fill="#dba660"/>
            </g>
            <g id="Grupo_1223035" data-name="Grupo 1223035" transform="translate(14.715)">
              <path id="Trazado_1295372" data-name="Trazado 1295372" d="M33.818,40.214a1.078,1.078,0,0,1-.485.826L30.621,42.6c-.249.144-.472.039-.472-.275l-.013-3.105a1.1,1.1,0,0,1,.472-.826l2.712-1.559c.262-.157.485-.039.485.275Z" transform="translate(-30.136 -36.764)" fill="#f45170"/>
            </g>
          </g>
        </g>
        <g id="Grupo_1223045" data-name="Grupo 1223045" transform="translate(5.584 32.055)">
          <g id="Grupo_1223044" data-name="Grupo 1223044">
            <g id="Grupo_1223038" data-name="Grupo 1223038" transform="translate(0.027 17.125)">
              <path id="Trazado_1295373" data-name="Trazado 1295373" d="M20.811,39.956a1.667,1.667,0,0,1-.766,1.319c-.418.241-.759.05-.759-.44a1.652,1.652,0,0,1,.759-1.319C20.463,39.275,20.811,39.466,20.811,39.956Z" transform="translate(-19.285 -39.412)" fill="#c9cee2"/>
            </g>
            <g id="Grupo_1223039" data-name="Grupo 1223039" transform="translate(0 9.464)">
              <path id="Trazado_1295374" data-name="Trazado 1295374" d="M20.792,34.2a1.67,1.67,0,0,1-.75,1.319c-.427.246-.763.039-.776-.44a1.7,1.7,0,0,1,.763-1.319C20.455,33.515,20.792,33.709,20.792,34.2Z" transform="translate(-19.265 -33.654)" fill="#c9cee2"/>
            </g>
            <g id="Grupo_1223040" data-name="Grupo 1223040" transform="translate(0.013 13.293)">
              <path id="Trazado_1295375" data-name="Trazado 1295375" d="M19.275,37.958a1.678,1.678,0,0,1,.759-1.319c.426-.248.766-.05.773.433a1.71,1.71,0,0,1-.766,1.326C19.623,38.639,19.282,38.441,19.275,37.958Z" transform="translate(-19.275 -36.532)" fill="#c9cee2"/>
            </g>
            <g id="Grupo_1223041" data-name="Grupo 1223041" transform="translate(2.19)">
              <path id="Trazado_1295376" data-name="Trazado 1295376" d="M20.912,36.169a1.667,1.667,0,0,1,.766-1.319l14.207-8.2c.418-.248.766-.057.766.433a1.678,1.678,0,0,1-.759,1.319L21.678,36.6c-.419.248-.766.057-.766-.433Z" transform="translate(-20.912 -26.541)" fill="#c9cee2"/>
            </g>
            <g id="Grupo_1223042" data-name="Grupo 1223042" transform="translate(2.198 3.832)">
              <path id="Trazado_1295377" data-name="Trazado 1295377" d="M20.917,39.053a1.68,1.68,0,0,1,.766-1.326l14.207-8.2c.418-.241.766-.057.766.433a1.678,1.678,0,0,1-.759,1.319L21.683,39.486c-.419.241-.766.05-.766-.433Z" transform="translate(-20.917 -29.421)" fill="#c9cee2"/>
            </g>
            <g id="Grupo_1223043" data-name="Grupo 1223043" transform="translate(2.205 7.66)">
              <path id="Trazado_1295378" data-name="Trazado 1295378" d="M36.661,32.837a1.66,1.66,0,0,1-.759,1.319L21.7,42.363c-.426.241-.766.05-.773-.433a1.675,1.675,0,0,1,.766-1.319L35.895,32.4C36.313,32.163,36.661,32.347,36.661,32.837Z" transform="translate(-20.922 -32.299)" fill="#c9cee2"/>
            </g>
          </g>
        </g>
        <g id="Grupo_1223055" data-name="Grupo 1223055" transform="translate(5.8 4.245)">
          <g id="Grupo_1223047" data-name="Grupo 1223047" transform="translate(16.734)">
            <g id="Grupo_1223046" data-name="Grupo 1223046">
              <path id="Trazado_1295379" data-name="Trazado 1295379" d="M33.351,6.739l.431.244-.173.3-.431-.246a1.4,1.4,0,0,1-.428.407.524.524,0,0,1-.526.052A.513.513,0,0,1,32,7.022a1.489,1.489,0,0,1,.215-.727,1.505,1.505,0,0,1,.524-.553.527.527,0,0,1,.525-.053c.26.148.289.6.082,1.05Zm-.253.055c.192-.334.191-.7,0-.806a.353.353,0,0,0-.349.035,1.024,1.024,0,0,0-.351.369,1.006,1.006,0,0,0-.144.487A.344.344,0,0,0,32.4,7.2a.35.35,0,0,0,.352-.035,1,1,0,0,0,.35-.368" transform="translate(-32.005 -5.64)" fill="#4c5c75"/>
            </g>
          </g>
          <g id="Grupo_1223054" data-name="Grupo 1223054" transform="translate(0 8.339)">
            <g id="Grupo_1223049" data-name="Grupo 1223049">
              <g id="Grupo_1223048" data-name="Grupo 1223048">
                <path id="Trazado_1295380" data-name="Trazado 1295380" d="M22.313,11.908v.408l-2.885,1.666v-.408Z" transform="translate(-19.428 -11.908)" fill="#4c5c75"/>
              </g>
            </g>
            <g id="Grupo_1223051" data-name="Grupo 1223051" transform="translate(0.005 1.845)">
              <g id="Grupo_1223050" data-name="Grupo 1223050">
                <path id="Trazado_1295381" data-name="Trazado 1295381" d="M22.317,13.294V13.7l-2.885,1.666V14.96Z" transform="translate(-19.432 -13.294)" fill="#4c5c75"/>
              </g>
            </g>
            <g id="Grupo_1223053" data-name="Grupo 1223053" transform="translate(0.003 0.923)">
              <g id="Grupo_1223052" data-name="Grupo 1223052">
                <path id="Trazado_1295382" data-name="Trazado 1295382" d="M22.315,12.6v.407l-2.885,1.666v-.407Z" transform="translate(-19.43 -12.602)" fill="#4c5c75"/>
              </g>
            </g>
          </g>
        </g>
      </g>
      <g id="Grupo_1223071" data-name="Grupo 1223071" transform="translate(28.493 2.177)">
        <g id="Grupo_1223068" data-name="Grupo 1223068">
          <g id="Grupo_1223067" data-name="Grupo 1223067">
            <g id="Grupo_1223066" data-name="Grupo 1223066">
              <g id="Grupo_1223058" data-name="Grupo 1223058" transform="translate(0.184 15.22)">
                <g id="Grupo_1223057" data-name="Grupo 1223057">
                  <path id="Trazado_1295383" data-name="Trazado 1295383" d="M37.888,20.392l-1.266-.736.885-4.132,2.8.8Z" transform="translate(-36.622 -15.525)" fill="#5ec363"/>
                </g>
              </g>
              <g id="Grupo_1223060" data-name="Grupo 1223060">
                <g id="Grupo_1223059" data-name="Grupo 1223059">
                  <path id="Trazado_1295384" data-name="Trazado 1295384" d="M48.878,5.235,38.752,20.377l-1.277-.732c-1.57-2-1.277-6.027.891-9.806a13.366,13.366,0,0,1,4.617-4.856c1.676-.958,3.34-1.2,4.63-.479Z" transform="translate(-36.484 -4.086)" fill="#72d561"/>
                </g>
              </g>
              <g id="Grupo_1223062" data-name="Grupo 1223062" transform="translate(1.271 0.735)">
                <g id="Grupo_1223061" data-name="Grupo 1223061">
                  <path id="Trazado_1295385" data-name="Trazado 1295385" d="M48.6,15.66a13.342,13.342,0,0,1-4.6,4.856,5.606,5.606,0,0,1-3.473.865l-2.9,2.608L38.43,20.2c-1.57-2-1.277-6.027.892-9.806a13.258,13.258,0,0,1,4.617-4.856c1.663-.958,3.34-1.2,4.617-.479,2.555,1.477,2.568,6.227.04,10.6Z" transform="translate(-37.439 -4.638)" fill="#78e75a"/>
                </g>
              </g>
              <g id="Grupo_1223065" data-name="Grupo 1223065" transform="translate(2.433 2.209)">
                <g id="Grupo_1223063" data-name="Grupo 1223063">
                  <path id="Trazado_1295386" data-name="Trazado 1295386" d="M47.48,14.826a10.809,10.809,0,0,1-3.788,3.994,3.808,3.808,0,0,1-3.8.383c-2.093-1.194-2.108-5.1-.015-8.725a10.9,10.9,0,0,1,3.773-3.994A3.835,3.835,0,0,1,47.465,6.1C49.543,7.309,49.558,11.215,47.48,14.826Z" transform="translate(-38.312 -5.746)" fill="#fff"/>
                </g>
                <g id="Grupo_1223064" data-name="Grupo 1223064" transform="translate(0.531 0.536)">
                  <path id="Trazado_1295387" data-name="Trazado 1295387" d="M41.148,18.894a2.212,2.212,0,0,1-1.125-.285,2.543,2.543,0,0,1-1.144-1.636A9.011,9.011,0,0,1,40.2,10.612a10.455,10.455,0,0,1,3.578-3.8,3.353,3.353,0,0,1,3.287-.381c1.8,1.044,1.712,4.706-.183,8a10.231,10.231,0,0,1-3.59,3.8,4.4,4.4,0,0,1-2.148.669ZM45.934,6.411a4.186,4.186,0,0,0-2.019.631,10.181,10.181,0,0,0-3.481,3.7,8.739,8.739,0,0,0-1.3,6.159,2.288,2.288,0,0,0,1.019,1.475,3.087,3.087,0,0,0,3.007-.385,9.972,9.972,0,0,0,3.493-3.7c1.822-3.167,1.951-6.662.281-7.634a2,2,0,0,0-1-.25Z" transform="translate(-38.711 -6.148)" fill="#4c5c75"/>
                </g>
              </g>
            </g>
          </g>
        </g>
        <g id="Grupo_1223070" data-name="Grupo 1223070" transform="translate(7.697 5.259)">
          <g id="Grupo_1223069" data-name="Grupo 1223069">
            <path id="Trazado_1295388" data-name="Trazado 1295388" d="M42.468,12.231a.2.2,0,0,1-.1-.027.2.2,0,0,1-.1-.173V8.238a.2.2,0,0,1,.4,0v3.448l3.118-1.8a.2.2,0,0,1,.2.346L42.568,12.2a.2.2,0,0,1-.1.027Z" transform="translate(-42.269 -8.038)" fill="#4c5c75"/>
          </g>
        </g>
      </g>
      <g id="Grupo_1223076" data-name="Grupo 1223076" transform="translate(18.688 1.305)">
        <g id="Grupo_1223073" data-name="Grupo 1223073">
          <g id="Grupo_1223072" data-name="Grupo 1223072">
            <path id="Trazado_1295389" data-name="Trazado 1295389" d="M31.205,3.632a1.954,1.954,0,0,0-1.73,0c-.423.243-.474.615-.154.884a.8.8,0,0,1,.154-.115,1.955,1.955,0,0,1,1.73,0l.154.115C31.666,4.247,31.615,3.875,31.205,3.632Z" transform="translate(-29.114 -3.43)" fill="#fff"/>
          </g>
        </g>
        <g id="Grupo_1223075" data-name="Grupo 1223075" transform="translate(0.207 0.769)">
          <g id="Grupo_1223074" data-name="Grupo 1223074">
            <path id="Trazado_1295390" data-name="Trazado 1295390" d="M29.424,4.21a.8.8,0,0,0-.154.115.8.8,0,0,0,.154.115,1.875,1.875,0,0,0,1.73,0,1.072,1.072,0,0,0,.154-.1V4.325l-.154-.115A1.955,1.955,0,0,0,29.424,4.21Z" transform="translate(-29.27 -4.008)" fill="#4c5c75"/>
          </g>
        </g>
      </g>
    </g>
    <g id="Grupo_1223084" data-name="Grupo 1223084" transform="translate(5.759 39.426)">
      <g id="Grupo_1223081" data-name="Grupo 1223081">
        <g id="Grupo_1223078" data-name="Grupo 1223078">
          <path id="Trazado_1295391" data-name="Trazado 1295391" d="M15.418,31.011,7.342,44.955l-1.171-.679a.959.959,0,0,1-.386-.878l-.027-7.052a3.019,3.019,0,0,1,1.357-2.368l6.147-3.553a1,1,0,0,1,.985-.093Z" transform="translate(-5.759 -30.24)" fill="#df3260"/>
        </g>
        <g id="Grupo_1223080" data-name="Grupo 1223080" transform="translate(1.172 0.684)">
          <g id="Grupo_1223079" data-name="Grupo 1223079">
            <path id="Trazado_1295392" data-name="Trazado 1295392" d="M14.147,30.942c.756-.437,1.373-.085,1.375.784l.02,7.056a3,3,0,0,1-1.366,2.359L8.028,44.69c-.756.437-1.366.089-1.368-.78l-.02-7.056A3,3,0,0,1,8,34.492Z" transform="translate(-6.639 -30.755)" fill="#f45170"/>
          </g>
        </g>
      </g>
      <g id="Grupo_1223083" data-name="Grupo 1223083" transform="translate(1.969 4.75)">
        <g id="Grupo_1223082" data-name="Grupo 1223082">
          <path id="Trazado_1295393" data-name="Trazado 1295393" d="M14.495,34.338l-2.456,3.2a.12.12,0,0,1-.047.047c-.053.029-.1.006-.1-.064l-.006-1c-.123.064-.246.135-.363.205a11.109,11.109,0,0,0-4.285,4.719,8.554,8.554,0,0,1,4.379-6.354c.088-.047.176-.1.27-.147l-.006-.95a.216.216,0,0,1,.1-.17.171.171,0,0,1,.053-.012l2.462.346c.07.006.07.111,0,.182Z" transform="translate(-7.238 -33.811)" fill="#fff"/>
        </g>
      </g>
    </g>
    <g id="Grupo_1223120" data-name="Grupo 1223120" transform="translate(38.712 37.562)">
      <g id="Grupo_1223119" data-name="Grupo 1223119" transform="translate(0)">
        <g id="Grupo_1223118" data-name="Grupo 1223118">
          <g id="Grupo_1223087" data-name="Grupo 1223087" transform="translate(13.895)">
            <g id="Grupo_1223086" data-name="Grupo 1223086">
              <g id="Grupo_1223085" data-name="Grupo 1223085">
                <path id="Trazado_1295394" data-name="Trazado 1295394" d="M48.433,47.627,44.841,49.7,41.022,47.48l-.053-16.565,3.592-2.076,3.819,2.222Z" transform="translate(-40.969 -28.84)" fill="#497bfe"/>
              </g>
            </g>
          </g>
          <g id="Grupo_1223094" data-name="Grupo 1223094" transform="translate(13.895 0.005)">
            <g id="Grupo_1223089" data-name="Grupo 1223089" transform="translate(0 2.075)">
              <g id="Grupo_1223088" data-name="Grupo 1223088">
                <path id="Trazado_1295395" data-name="Trazado 1295395" d="M44.843,49.18l-3.816-2.217L40.969,30.4l3.816,2.217Z" transform="translate(-40.969 -30.403)" fill="#5094ff"/>
              </g>
            </g>
            <g id="Grupo_1223091" data-name="Grupo 1223091">
              <g id="Grupo_1223090" data-name="Grupo 1223090">
                <path id="Trazado_1295396" data-name="Trazado 1295396" d="M44.784,33.136l-3.816-2.217,3.595-2.075,3.816,2.217Z" transform="translate(-40.969 -28.843)" fill="#57b3fe"/>
              </g>
            </g>
            <g id="Grupo_1223093" data-name="Grupo 1223093" transform="translate(3.816 2.217)">
              <g id="Grupo_1223092" data-name="Grupo 1223092">
                <path id="Trazado_1295397" data-name="Trazado 1295397" d="M47.431,30.51l.059,16.559L43.9,49.144l-.059-16.559Z" transform="translate(-43.836 -30.51)" fill="#497bfe"/>
              </g>
            </g>
          </g>
          <g id="Grupo_1223097" data-name="Grupo 1223097" transform="translate(6.961 9.27)">
            <g id="Grupo_1223096" data-name="Grupo 1223096">
              <g id="Grupo_1223095" data-name="Grupo 1223095">
                <path id="Trazado_1295398" data-name="Trazado 1295398" d="M43.2,49.338l-3.594,2.076-3.817-2.221-.033-11.31,3.594-2.076,3.817,2.221Z" transform="translate(-35.757 -35.807)" fill="#db9952"/>
              </g>
            </g>
          </g>
          <g id="Grupo_1223100" data-name="Grupo 1223100" transform="translate(6.963 9.274)">
            <g id="Grupo_1223099" data-name="Grupo 1223099">
              <g id="Grupo_1223098" data-name="Grupo 1223098">
                <path id="Trazado_1295399" data-name="Trazado 1295399" d="M43.21,49.328,39.617,51.4,35.8,49.195l-.04-11.31,3.592-2.076,3.819,2.209Z" transform="translate(-35.759 -35.81)" fill="#dba660"/>
              </g>
            </g>
          </g>
          <g id="Grupo_1223107" data-name="Grupo 1223107" transform="translate(6.962 9.269)">
            <g id="Grupo_1223102" data-name="Grupo 1223102" transform="translate(0 2.076)">
              <g id="Grupo_1223101" data-name="Grupo 1223101">
                <path id="Trazado_1295400" data-name="Trazado 1295400" d="M39.611,50.893,35.8,48.676l-.038-11.31,3.816,2.217Z" transform="translate(-35.758 -37.366)" fill="#bf7d5a"/>
              </g>
            </g>
            <g id="Grupo_1223104" data-name="Grupo 1223104" transform="translate(0)">
              <g id="Grupo_1223103" data-name="Grupo 1223103">
                <path id="Trazado_1295401" data-name="Trazado 1295401" d="M39.573,40.1l-3.816-2.217,3.595-2.075,3.816,2.217Z" transform="translate(-35.758 -35.806)" fill="#dba660"/>
              </g>
            </g>
            <g id="Grupo_1223106" data-name="Grupo 1223106" transform="translate(3.816 2.217)">
              <g id="Grupo_1223105" data-name="Grupo 1223105">
                <path id="Trazado_1295402" data-name="Trazado 1295402" d="M42.22,37.472l.038,11.31-3.595,2.075-.038-11.31Z" transform="translate(-38.625 -37.472)" fill="#aa6256"/>
              </g>
            </g>
          </g>
          <g id="Grupo_1223110" data-name="Grupo 1223110" transform="translate(0.005 16.259)">
            <g id="Grupo_1223109" data-name="Grupo 1223109">
              <g id="Grupo_1223108" data-name="Grupo 1223108">
                <path id="Trazado_1295403" data-name="Trazado 1295403" d="M37.98,51.611l-3.592,2.076-3.819-2.222-.04-8.329,3.592-2.076,3.819,2.209Z" transform="translate(-30.529 -41.06)" fill="#78e75a"/>
              </g>
            </g>
          </g>
          <g id="Grupo_1223117" data-name="Grupo 1223117" transform="translate(0 16.254)">
            <g id="Grupo_1223112" data-name="Grupo 1223112" transform="translate(0 2.075)">
              <g id="Grupo_1223111" data-name="Grupo 1223111">
                <path id="Trazado_1295404" data-name="Trazado 1295404" d="M34.386,53.173l-3.816-2.217-.045-8.341,3.816,2.217Z" transform="translate(-30.525 -42.615)" fill="#72d561"/>
              </g>
            </g>
            <g id="Grupo_1223114" data-name="Grupo 1223114">
              <g id="Grupo_1223113" data-name="Grupo 1223113">
                <path id="Trazado_1295405" data-name="Trazado 1295405" d="M34.341,45.348l-3.816-2.217,3.595-2.075,3.816,2.217Z" transform="translate(-30.525 -41.055)" fill="#78e75a"/>
              </g>
            </g>
            <g id="Grupo_1223116" data-name="Grupo 1223116" transform="translate(3.816 2.217)">
              <g id="Grupo_1223115" data-name="Grupo 1223115">
                <path id="Trazado_1295406" data-name="Trazado 1295406" d="M36.988,42.722l.045,8.341-3.595,2.075L33.393,44.8Z" transform="translate(-33.393 -42.722)" fill="#5ec363"/>
              </g>
            </g>
          </g>
        </g>
      </g>
    </g>
  </g>
</svg>
