<svg xmlns="http://www.w3.org/2000/svg" width="43.302" height="62.01" viewBox="0 0 43.302 62.01">
  <g id="_x34_3" transform="translate(-8.743 -1.504)">
    <g id="Grupo_1222574" data-name="Grupo 1222574" transform="translate(8.743 1.504)">
      <g id="Grupo_1222565" data-name="Grupo 1222565">
        <g id="Grupo_1222564" data-name="Grupo 1222564">
          <g id="Grupo_1222563" data-name="Grupo 1222563">
            <g id="Grupo_1222561" data-name="Grupo 1222561">
              <g id="Grupo_1222555" data-name="Grupo 1222555">
                <g id="Grupo_1222554" data-name="Grupo 1222554">
                  <g id="Grupo_1222548" data-name="Grupo 1222548">
                    <g id="Grupo_1222547" data-name="Grupo 1222547">
                      <g id="Grupo_1222545" data-name="Grupo 1222545">
                        <path id="Trazado_1295129" data-name="Trazado 1295129" d="M36.859,4.291a2.077,2.077,0,0,0-2.067.207l-5.633,25.17c-1.6.943-4.005,10.427-4.005,12.275L19.475,59.293c0,.9-5.822,3.722-5.305,4.019L9.7,60.715a2.012,2.012,0,0,1-.84-1.848v-.013L8.743,17.7a6.4,6.4,0,0,1,2.894-5.013L30.321,1.9a2.077,2.077,0,0,1,2.067-.207Z" transform="translate(-8.743 -1.504)" fill="#4d5c75"/>
                      </g>
                      <g id="Grupo_1222546" data-name="Grupo 1222546" transform="translate(4.467 2.589)">
                        <path id="Trazado_1295130" data-name="Trazado 1295130" d="M33.78,3.905c1.6-.925,2.9-.182,2.909,1.658l.117,41.172a6.369,6.369,0,0,1-2.89,5.006L15.227,62.53c-1.6.925-2.9.183-2.909-1.657L12.2,19.7a6.37,6.37,0,0,1,2.89-5.006Z" transform="translate(-12.201 -3.507)" fill="#1c2841"/>
                      </g>
                    </g>
                  </g>
                  <g id="Grupo_1222549" data-name="Grupo 1222549" transform="translate(5.348 3.722)">
                    <path id="Trazado_1295131" data-name="Trazado 1295131" d="M33.584,4.661c1.113-.643,2.022-.125,2.026,1.155l.117,41.171a4.442,4.442,0,0,1-2.013,3.486L15.025,61.263c-1.114.643-2.022.125-2.026-1.155l-.117-41.171a4.442,4.442,0,0,1,2.013-3.486Z" transform="translate(-12.882 -4.384)" fill="#1c2841"/>
                  </g>
                  <g id="Grupo_1222552" data-name="Grupo 1222552" transform="translate(6.238 8.216)">
                    <g id="Grupo_1222550" data-name="Grupo 1222550">
                      <path id="Trazado_1295132" data-name="Trazado 1295132" d="M34.538,7.863l.1,34.5L13.669,54.47l-.1-34.5Z" transform="translate(-13.571 -7.863)" fill="#57b3fe"/>
                    </g>
                    <g id="Grupo_1222551" data-name="Grupo 1222551" transform="translate(8.019 40.908)">
                      <path id="Trazado_1295133" data-name="Trazado 1295133" d="M24.8,39.925V41.85a1.246,1.246,0,0,1-.556.969l-3.889,2.248c-.323.181-.569.039-.569-.323l-.013-1.925a1.26,1.26,0,0,1,.569-.969L24.235,39.6c.31-.181.568-.039.568.323Z" transform="translate(-19.777 -39.523)" fill="#4c5c75"/>
                    </g>
                  </g>
                  <g id="Grupo_1222553" data-name="Grupo 1222553" transform="translate(12.395 9.344)">
                    <path id="Trazado_1295134" data-name="Trazado 1295134" d="M26.36,9.293a1.606,1.606,0,0,1-.22.775l-.556.581-6.447,3.721c-.284.168-.53.142-.672-.026a.658.658,0,0,1-.129-.413,1.587,1.587,0,0,1,.233-.775,1.646,1.646,0,0,1,.556-.594l6.447-3.721a.713.713,0,0,1,.4-.1C26.205,8.763,26.36,8.957,26.36,9.293Z" transform="translate(-18.337 -8.735)" fill="#4c5c75"/>
                  </g>
                </g>
              </g>
              <g id="Grupo_1222560" data-name="Grupo 1222560" transform="translate(0.638 18.932)">
                <g id="Grupo_1222557" data-name="Grupo 1222557" transform="translate(0.034)">
                  <path id="Trazado_1295135" data-name="Trazado 1295135" d="M11.02,16.312a.813.813,0,0,0-.8-.086l-.691.4c.209-.114.329,2.008.635,2.184.621.359-.387.872-.389,1.586l.854,3.916c0,.363.672.568.472.682l.691-.4a.789.789,0,0,0,.328-.727l.019-5.617a2.466,2.466,0,0,0-1.123-1.939Z" transform="translate(-9.185 -16.156)" fill="#fff"/>
                  <g id="Grupo_1222556" data-name="Grupo 1222556" transform="translate(0 0.402)">
                    <path id="Trazado_1295136" data-name="Trazado 1295136" d="M10.408,16.623a.813.813,0,0,0-.8-.086.788.788,0,0,0-.328.727L9.263,22.88a2.466,2.466,0,0,0,1.118,1.942.814.814,0,0,0,.8.083.789.789,0,0,0,.328-.727l.019-5.617a2.466,2.466,0,0,0-1.123-1.939Z" transform="translate(-9.263 -16.467)" fill="#e9e7fc"/>
                  </g>
                </g>
                <g id="Grupo_1222559" data-name="Grupo 1222559" transform="translate(0 10.864)">
                  <path id="Trazado_1295137" data-name="Trazado 1295137" d="M10.994,24.716a.81.81,0,0,0-.8-.08l-.691.4c.209-.114.335.712.641.889.621.359.228.731.226,1.445l.558,5.378c0,.357.348.537.148.657l.691-.4a.8.8,0,0,0,.328-.727l.019-5.617a2.476,2.476,0,0,0-1.123-1.944Z" transform="translate(-9.158 -24.564)" fill="#fff"/>
                  <g id="Grupo_1222558" data-name="Grupo 1222558" transform="translate(0 0.401)">
                    <path id="Trazado_1295138" data-name="Trazado 1295138" d="M10.381,25.027a.81.81,0,0,0-.8-.08.788.788,0,0,0-.328.727L9.237,31.29a2.466,2.466,0,0,0,1.118,1.942.814.814,0,0,0,.8.083.8.8,0,0,0,.328-.727l.019-5.617a2.476,2.476,0,0,0-1.123-1.944Z" transform="translate(-9.237 -24.875)" fill="#e9e7fc"/>
                  </g>
                </g>
              </g>
            </g>
            <g id="Grupo_1222562" data-name="Grupo 1222562" transform="translate(19.823 1.9)">
              <path id="Trazado_1295139" data-name="Trazado 1295139" d="M27.3,3.285a3.006,3.006,0,0,0-2.661,0c-.65.374-.729.946-.237,1.36a1.231,1.231,0,0,1,.237-.177,3.007,3.007,0,0,1,2.661,0l.237.177C28.011,4.231,27.932,3.659,27.3,3.285Z" transform="translate(-24.086 -2.974)" fill="#fff"/>
              <path id="Trazado_1295140" data-name="Trazado 1295140" d="M24.569,4.2a1.231,1.231,0,0,0-.237.177,1.231,1.231,0,0,0,.237.177,2.884,2.884,0,0,0,2.661,0,1.648,1.648,0,0,0,.237-.158v-.02L27.23,4.2A3.007,3.007,0,0,0,24.569,4.2Z" transform="translate(-24.014 -2.707)" fill="#111d33"/>
            </g>
          </g>
        </g>
      </g>
      <g id="Grupo_1222569" data-name="Grupo 1222569" transform="translate(17.488 5.732)">
        <g id="Grupo_1222568" data-name="Grupo 1222568" transform="translate(0)">
          <g id="Grupo_1222566" data-name="Grupo 1222566" transform="translate(5.696 26.276)">
            <path id="Trazado_1295141" data-name="Trazado 1295141" d="M28.829,34.71l-2.122-1.234-.02-7.2,2.122,1.234C31.261,27.979,30.5,30.985,28.829,34.71Z" transform="translate(-26.687 -26.277)" fill="#e9e7fc"/>
          </g>
          <path id="Trazado_1295142" data-name="Trazado 1295142" d="M47.023,7.418c-.6-.351,1.25,10.806.359,11.259L32.53,20.315c-.088.044-2.326,3.423-2.413,3.482-1.958,1.125.519,2.287.533,4.581l-1.887,3.566c0,1.125-3.94,2.73-3.3,3.11l-2.122-1.233a2.514,2.514,0,0,1-1.038-2.309l-.029-10.7a7.833,7.833,0,0,1,3.566-6.182,1.384,1.384,0,0,1,.249-.146L42.607,6.3A2.358,2.358,0,0,1,44.9,6.185Z" transform="translate(-22.278 -5.94)" fill="#dedffb"/>
          <g id="Grupo_1222567" data-name="Grupo 1222567" transform="translate(2.116 1.235)">
            <path id="Trazado_1295143" data-name="Trazado 1295143" d="M27.482,15.581q.129-.074.26-.139l16.5-8.191c1.879-.928,3.339.024,3.346,2.187l.023,9.492a7.934,7.934,0,0,1-3.322,6.036l-7.93,3.76L29.639,40.371l-.02-7.2-1.823,1.2q-.128.084-.255.157c-1.961,1.132-3.588.238-3.594-2.053l-.03-10.708a7.875,7.875,0,0,1,3.566-6.184Z" transform="translate(-23.916 -6.896)" fill="#f8f9fe"/>
          </g>
        </g>
      </g>
      <g id="Grupo_1222573" data-name="Grupo 1222573" transform="translate(25.276 13.159)">
        <g id="Grupo_1222570" data-name="Grupo 1222570" transform="translate(0 7.576)">
          <path id="Trazado_1295144" data-name="Trazado 1295144" d="M31.981,18.822l.009,3.206,0,2.194,0,.171a1.129,1.129,0,0,1-.512.887l-2.649,1.53c-.281.162-.51.027-.511-.3l-.018-6.482a1.12,1.12,0,0,1,.508-.88l2.649-1.53c.26-.15.479-.052.511.22ZM30.157,24.9a1.35,1.35,0,0,0,.613-1.063c0-.389-.275-.55-.617-.352a1.358,1.358,0,0,0-.613,1.063c0,.389.279.547.617.352" transform="translate(-28.306 -17.552)" fill="#1d2943"/>
        </g>
        <g id="Grupo_1222571" data-name="Grupo 1222571" transform="translate(1.233 13.427)">
          <path id="Trazado_1295145" data-name="Trazado 1295145" d="M30.489,22.519a1.338,1.338,0,0,1-.61,1.06c-.338.2-.619.038-.619-.352a1.354,1.354,0,0,1,.615-1.06C30.217,21.965,30.489,22.129,30.489,22.519Z" transform="translate(-29.26 -22.08)" fill="#fff"/>
        </g>
        <g id="Grupo_1222572" data-name="Grupo 1222572" transform="translate(3.668)">
          <path id="Trazado_1295146" data-name="Trazado 1295146" d="M34.622,11.773a.573.573,0,0,1,.612.008,1.045,1.045,0,0,1,.378.851,12.415,12.415,0,0,1-.383,3.322c-.052.209.062.335.229.238l4.524-2.645c.5-.289.947-.082.924.508a1.777,1.777,0,0,1-.247.813,1.745,1.745,0,0,1-.615.65l-.367.216-.118.068c.534-.308.959.009.851.714a1.99,1.99,0,0,1-.874,1.307l-.346.2c.5-.289.9-.052.879.548a2,2,0,0,1-.914,1.48l-.318.188-.269.155c.412-.238.792-.129.879.286a1.836,1.836,0,0,1-.844,1.7L32.909,25.71a1.934,1.934,0,0,1-1.493.285l-.249-.059-.006-2.2,0-2.194-.007-1.012-.007-.98c0-.032,3.082-3.1,3.127-7.176A.782.782,0,0,1,34.622,11.773Z" transform="translate(-31.145 -11.688)" fill="#f5c9c6"/>
        </g>
      </g>
    </g>
  </g>
</svg>
