<svg xmlns="http://www.w3.org/2000/svg" width="63.235" height="69.308" viewBox="0 0 63.235 69.308">
  <g id="_x32_6" transform="translate(-3.616 -1.515)">
    <g id="Grupo_1222888" data-name="Grupo 1222888" transform="translate(3.616 1.514)">
      <g id="Grupo_1222887" data-name="Grupo 1222887">
        <path id="Trazado_1295269" data-name="Trazado 1295269" d="M55.913,10.156c-.052-.578.263-2.345-.736-2.917l0,0L49.2,3.757a1.783,1.783,0,0,0-1.766.175L6.083,27.8a5.547,5.547,0,0,0-2.466,4.275L3.7,64.655a1.868,1.868,0,0,0,.726,1.592l4.463,2.592,1.524.887.007,0a1.742,1.742,0,0,0,1.76-.171L53.535,45.685l.021-.015A5.439,5.439,0,0,0,56,41.418c-.119-42.723-.079-28.137-.087-31.262Z" transform="translate(-3.616 -0.59)" fill="#f9a83d"/>
        <g id="Grupo_1222872" data-name="Grupo 1222872" transform="translate(0 3.005)">
          <g id="Grupo_1222855" data-name="Grupo 1222855" transform="translate(0.001 0)">
            <g id="Grupo_1222854" data-name="Grupo 1222854">
              <g id="Grupo_1222853" data-name="Grupo 1222853">
                <path id="Trazado_1295270" data-name="Trazado 1295270" d="M56,40.089v1.329a5.435,5.435,0,0,1-2.465,4.266L12.184,69.551a1.741,1.741,0,0,1-1.766.175l-.14-.087-5.84-3.392a.966.966,0,0,1-.3-.245A1.885,1.885,0,0,1,3.7,64.655L3.617,32.082a3.935,3.935,0,0,1,.21-1.241,5.561,5.561,0,0,1,1.766-2.693,3.134,3.134,0,0,1,.49-.35L47.433,3.932A1.783,1.783,0,0,1,49.2,3.757l5.98,3.479c-.035-.018-.053-.035-.087-.035a1.662,1.662,0,0,1,.822,1.626v1.329Z" transform="translate(-3.617 -3.594)" fill="#ffb961"/>
              </g>
            </g>
          </g>
          <g id="Grupo_1222856" data-name="Grupo 1222856" transform="translate(0.019)">
            <path id="Trazado_1295271" data-name="Trazado 1295271" d="M10.413,69.726l-5.98-3.479a1.708,1.708,0,0,1-.717-1.591L3.629,32.082A5.429,5.429,0,0,1,6.077,27.8L47.428,3.932a1.783,1.783,0,0,1,1.766-.175l5.98,3.479-45.46,60.9a1.737,1.737,0,0,0,.7,1.591Z" transform="translate(-3.629 -3.594)" fill="#ffde9b"/>
          </g>
          <g id="Grupo_1222871" data-name="Grupo 1222871" transform="translate(0 3.481)">
            <g id="Grupo_1222870" data-name="Grupo 1222870">
              <g id="Grupo_1222869" data-name="Grupo 1222869">
                <g id="Grupo_1222868" data-name="Grupo 1222868">
                  <g id="Grupo_1222857" data-name="Grupo 1222857" transform="translate(5.997)">
                    <path id="Trazado_1295272" data-name="Trazado 1295272" d="M51.58,6.341c1.362-.786,2.474-.155,2.478,1.415l.092,32.589a5.432,5.432,0,0,1-2.462,4.268L10.34,68.486c-1.367.789-2.477.157-2.481-1.414L7.767,34.483a5.428,5.428,0,0,1,2.465-4.269Z" transform="translate(-7.767 -6.003)" fill="#ffb961"/>
                  </g>
                  <g id="Grupo_1222858" data-name="Grupo 1222858" transform="translate(0 20.73)">
                    <path id="Trazado_1295273" data-name="Trazado 1295273" d="M9.611,28.1l.1,32.586a1.714,1.714,0,0,0,.718,1.589L4.431,58.794a1.714,1.714,0,0,1-.718-1.589l-.1-32.585a5.436,5.436,0,0,1,2.473-4.268l5.995,3.481A5.436,5.436,0,0,0,9.611,28.1Z" transform="translate(-3.616 -20.351)" fill="#ffd06c"/>
                  </g>
                  <g id="Grupo_1222867" data-name="Grupo 1222867" transform="translate(6.001 3.073)">
                    <g id="Grupo_1222860" data-name="Grupo 1222860" transform="translate(0 26.694)">
                      <g id="Grupo_1222859" data-name="Grupo 1222859">
                        <path id="Trazado_1295274" data-name="Trazado 1295274" d="M7.769,26.607l.352.046.018,0c-.085,0-.169-.007-.253-.011l-.117,0Z" transform="translate(-7.769 -26.607)" fill="#c4990d"/>
                      </g>
                    </g>
                    <g id="Grupo_1222862" data-name="Grupo 1222862" transform="translate(0)">
                      <g id="Grupo_1222861" data-name="Grupo 1222861">
                        <path id="Trazado_1295275" data-name="Trazado 1295275" d="M48.015,15.559c2-2.5,4-4.992,6.046-7.429-1.8,2.719-3.652,5.386-5.5,8.056C42,25.559,37.658,31.494,30.969,40.5l-.557-.1c-.305-.066-13.93-2.468-22.643-5.537l.117,0c.084,0,.168.009.253.011,9.094.354,22.973,2.879,22.824,2.853,6.4-8.565,11.24-14.83,17.051-22.167Z" transform="translate(-7.769 -8.131)" fill="#f3a250"/>
                      </g>
                    </g>
                    <g id="Grupo_1222864" data-name="Grupo 1222864" transform="translate(26.89 0)">
                      <g id="Grupo_1222863" data-name="Grupo 1222863">
                        <path id="Trazado_1295276" data-name="Trazado 1295276" d="M45.783,8.131l.085,29.949L26.381,35.521c5.31-7.2,9.286-12.739,13.9-19.334,1.848-2.67,3.7-5.337,5.5-8.056Z" transform="translate(-26.381 -8.131)" fill="#f9a83d"/>
                      </g>
                    </g>
                    <g id="Grupo_1222866" data-name="Grupo 1222866" transform="translate(0 26.727)">
                      <g id="Grupo_1222865" data-name="Grupo 1222865">
                        <path id="Trazado_1295277" data-name="Trazado 1295277" d="M7.769,26.629c6.836,2.407,19.136,4.857,19.494,4.937L7.854,56.578Z" transform="translate(-7.769 -26.629)" fill="#f9a83d"/>
                      </g>
                    </g>
                  </g>
                </g>
              </g>
            </g>
          </g>
        </g>
        <g id="Grupo_1222876" data-name="Grupo 1222876" transform="translate(39.713)">
          <g id="Grupo_1222875" data-name="Grupo 1222875">
            <g id="Grupo_1222874" data-name="Grupo 1222874">
              <g id="Grupo_1222873" data-name="Grupo 1222873">
                <path id="Trazado_1295278" data-name="Trazado 1295278" d="M45.565,7.085a13.67,13.67,0,0,1-6.213,10.778c-3.6,2.072-5.012-.2-6.429-.722-1.113-.65-1.806-2.037-1.82-4A13.758,13.758,0,0,1,37.33,2.375c1.734-1.011,3.294-1.1,4.436-.433L43.759,3.1c1.112.65,1.806,2.023,1.806,3.988Z" transform="translate(-31.103 -1.514)" fill="#e93565"/>
              </g>
            </g>
          </g>
        </g>
        <g id="Grupo_1222886" data-name="Grupo 1222886" transform="translate(39.719 0.002)">
          <g id="Grupo_1222882" data-name="Grupo 1222882">
            <g id="Grupo_1222881" data-name="Grupo 1222881">
              <g id="Grupo_1222878" data-name="Grupo 1222878">
                <g id="Grupo_1222877" data-name="Grupo 1222877">
                  <path id="Trazado_1295279" data-name="Trazado 1295279" d="M43.752,3.091c-1.135-.657-2.711-.572-4.437.432A13.7,13.7,0,0,0,33.1,14.292c0,1.97.694,3.349,1.82,4.005l-1.989-1.154c-1.116-.657-1.81-2.036-1.82-4.005A13.729,13.729,0,0,1,37.327,2.369c1.735-1,3.3-1.088,4.437-.431Z" transform="translate(-31.107 -1.516)" fill="#e93565"/>
                </g>
              </g>
              <g id="Grupo_1222880" data-name="Grupo 1222880" transform="translate(1.986 1.152)">
                <g id="Grupo_1222879" data-name="Grupo 1222879">
                  <path id="Trazado_1295280" data-name="Trazado 1295280" d="M38.7,3.167c3.444-1.988,6.244-.386,6.255,3.565A13.7,13.7,0,0,1,38.743,17.5c-3.45,1.992-6.25.4-6.261-3.568A13.707,13.707,0,0,1,38.7,3.167Z" transform="translate(-32.482 -2.313)" fill="#f45170"/>
                </g>
              </g>
            </g>
          </g>
          <g id="Grupo_1222885" data-name="Grupo 1222885" transform="translate(5.973 4.69)">
            <g id="Grupo_1222884" data-name="Grupo 1222884">
              <g id="Grupo_1222883" data-name="Grupo 1222883">
                <path id="Trazado_1295281" data-name="Trazado 1295281" d="M39.574,10.586a.316.316,0,0,1,.134.3.894.894,0,0,1-.134.436.825.825,0,0,1-.317.324c-3.49,1.967-3.587,2.207-3.861,2.061-.106-.049-.155-.176-.155-.352a2.946,2.946,0,0,1,.281-1.2,7.609,7.609,0,0,1,.682-1.21c.26-.387.6-.865,1.027-1.421.366-.478.654-.879.872-1.189a6.285,6.285,0,0,0,.52-.9,1.792,1.792,0,0,0,.2-.781c0-.373-.106-.6-.317-.7s-.563-.007-1.048.267A6.612,6.612,0,0,0,35.952,7.47a.932.932,0,0,1-.2.183.292.292,0,0,1-.281.021c-.077-.042-.113-.134-.113-.274a.847.847,0,0,1,.225-.577A8.017,8.017,0,0,1,37.6,5.114a2.345,2.345,0,0,1,1.083-.352.969.969,0,0,1,.774.317,1.474,1.474,0,0,1,.281.978,3.3,3.3,0,0,1-.317,1.357,8.6,8.6,0,0,1-.753,1.364,34.517,34.517,0,0,0-2.448,3.594l3.031-1.751a.313.313,0,0,1,.317-.035Z" transform="translate(-35.241 -4.762)" fill="#fff"/>
              </g>
            </g>
          </g>
        </g>
      </g>
    </g>
    <path id="Trazado_1295282" data-name="Trazado 1295282" d="M54.5,41.581l.007-1.475L54.491,37.4l-2.455-.183c-.028-.055-.068-.107-.1-.161l.245-.186.558-.419,0-1.213v-.263l-3.31-1.915-1.96.877a15.428,15.428,0,0,0-1.907-.458l-.328-1.419H40.563l-.305,1.419c-.736.128-1.769.411-1.915.457l-1.96-.877-3.3,1.915v1.476l.679.507.152.114c-.01.018-.022.035-.031.052s-.039.064-.059.094l-2.456.183c0,.145.012,4.328.012,4.182l2.459.182c.028.054.067.107.1.161l-.314.239-.487.367L33.133,44l3.31,1.915,1.96-.877c.368.12.767.191,1.156.276.254.057.5.138.755.182l.32,1.423h0v0h4.668v0h0l.3-1.423a14.425,14.425,0,0,0,1.914-.458l1.96.877,3.086-1.8.2-.117v-.367l.006-1.105,0,0h0l-.826-.616c.028-.05.065-.1.09-.15Zm-6.093-2.209a3.183,3.183,0,0,1-1.518,1.66,8.678,8.678,0,0,1-7.875,0,3.187,3.187,0,0,1-1.546-1.7,3.189,3.189,0,0,1,1.517-1.654,8.679,8.679,0,0,1,7.877,0,3.193,3.193,0,0,1,1.545,1.7Z" transform="translate(12.345 13.585)" fill="#5564d7"/>
    <g id="Grupo_1222928" data-name="Grupo 1222928" transform="translate(43.714 45.642)">
      <g id="Grupo_1222889" data-name="Grupo 1222889" transform="translate(0.002 0.001)">
        <path id="Trazado_1295283" data-name="Trazado 1295283" d="M54.5,41.577l.008-1.472L54.491,37.4l-2.456-.183c-.031-.053-.069-.107-.1-.16l.8-.61.008-1.472-3.31-1.915-1.96.877a15.44,15.44,0,0,0-1.907-.458l-.328-1.419H40.563l-.305,1.419a14.287,14.287,0,0,0-1.915.458l-1.96-.877-3.3,1.915v1.472l.831.625c-.031.046-.061.1-.092.145l-2.456.183v1.48l.015,2.7,2.456.183c.031.053.069.107.1.16l-.8.61L33.133,44l3.31,1.915,1.96-.877a13.748,13.748,0,0,0,1.914.458l.32,1.426h4.668l.305-1.426a14.572,14.572,0,0,0,1.915-.458l1.96.877L52.774,44l.008-1.472-.831-.618a1.614,1.614,0,0,0,.092-.153Zm-6.728-.038a10.593,10.593,0,0,1-9.634.008,3.937,3.937,0,0,1-1.9-2.082A3.922,3.922,0,0,1,38.1,37.436a10.609,10.609,0,0,1,9.641,0,3.881,3.881,0,0,1,1.892,2.075A3.858,3.858,0,0,1,47.771,41.539Z" transform="translate(-31.371 -32.058)" fill="#656fea"/>
      </g>
      <g id="Grupo_1222927" data-name="Grupo 1222927">
        <g id="Grupo_1222926" data-name="Grupo 1222926">
          <g id="Grupo_1222891" data-name="Grupo 1222891" transform="translate(19.86 2.916)">
            <g id="Grupo_1222890" data-name="Grupo 1222890">
              <path id="Trazado_1295284" data-name="Trazado 1295284" d="M46.63,34.075l0,1.475-1.51,1.135,0-1.475Z" transform="translate(-45.116 -34.075)" fill="#5564d7"/>
            </g>
          </g>
          <g id="Grupo_1222893" data-name="Grupo 1222893" transform="translate(1.718 2.916)">
            <g id="Grupo_1222892" data-name="Grupo 1222892">
              <path id="Trazado_1295285" data-name="Trazado 1295285" d="M34.079,35.207l0,1.475-1.516-1.131,0-1.475Z" transform="translate(-32.559 -34.075)" fill="#656fea"/>
            </g>
          </g>
          <g id="Grupo_1222895" data-name="Grupo 1222895" transform="translate(5.996 3.468)">
            <g id="Grupo_1222894" data-name="Grupo 1222894">
              <path id="Trazado_1295286" data-name="Trazado 1295286" d="M46.663,37.7l0,1.205a2.785,2.785,0,0,0-1.643-2.3,8.679,8.679,0,0,0-7.877,0,2.767,2.767,0,0,0-1.619,2.266l0-1.205A2.767,2.767,0,0,1,37.142,35.4a8.679,8.679,0,0,1,7.877,0,2.785,2.785,0,0,1,1.643,2.3Z" transform="translate(-35.52 -34.457)" fill="#6f93f1"/>
            </g>
          </g>
          <g id="Grupo_1222897" data-name="Grupo 1222897" transform="translate(0 5.342)">
            <g id="Grupo_1222896" data-name="Grupo 1222896">
              <path id="Trazado_1295287" data-name="Trazado 1295287" d="M31.388,38.461l0,1.475L31.37,37.23l0-1.475Z" transform="translate(-31.37 -35.754)" fill="#6bb4f9"/>
            </g>
          </g>
          <g id="Grupo_1222899" data-name="Grupo 1222899" transform="translate(20.674 8.049)">
            <g id="Grupo_1222898" data-name="Grupo 1222898">
              <path id="Trazado_1295288" data-name="Trazado 1295288" d="M48.14,37.628l0,1.475-2.456.181,0-1.475Z" transform="translate(-45.68 -37.628)" fill="#656fea"/>
            </g>
          </g>
          <g id="Grupo_1222901" data-name="Grupo 1222901" transform="translate(0.014 8.048)">
            <g id="Grupo_1222900" data-name="Grupo 1222900">
              <path id="Trazado_1295289" data-name="Trazado 1295289" d="M33.843,37.809l0,1.475L31.38,39.1l0-1.475Z" transform="translate(-31.38 -37.628)" fill="#656fea"/>
            </g>
          </g>
          <g id="Grupo_1222903" data-name="Grupo 1222903" transform="translate(19.89 8.23)">
            <g id="Grupo_1222902" data-name="Grupo 1222902">
              <path id="Trazado_1295290" data-name="Trazado 1295290" d="M45.925,37.753l0,1.475a4.767,4.767,0,0,1-.785,1.11l0-1.475a4.767,4.767,0,0,0,.785-1.11Z" transform="translate(-45.136 -37.753)" fill="#5564d7"/>
            </g>
          </g>
          <g id="Grupo_1222905" data-name="Grupo 1222905" transform="translate(2.473 8.23)">
            <g id="Grupo_1222904" data-name="Grupo 1222904">
              <path id="Trazado_1295291" data-name="Trazado 1295291" d="M33.882,38.863l0,1.475a4.645,4.645,0,0,1-.8-1.11l0-1.475a4.645,4.645,0,0,0,.8,1.11Z" transform="translate(-33.082 -37.753)" fill="#6bb4f9"/>
            </g>
          </g>
          <g id="Grupo_1222907" data-name="Grupo 1222907" transform="translate(14.243 11.509)">
            <g id="Grupo_1222906" data-name="Grupo 1222906">
              <path id="Trazado_1295292" data-name="Trazado 1295292" d="M43.147,40.023l0,1.475a14.428,14.428,0,0,1-1.914.458l0-1.475A14.427,14.427,0,0,0,43.147,40.023Z" transform="translate(-41.228 -40.023)" fill="#5564d7"/>
            </g>
          </g>
          <g id="Grupo_1222909" data-name="Grupo 1222909" transform="translate(7.032 11.506)">
            <g id="Grupo_1222908" data-name="Grupo 1222908">
              <path id="Trazado_1295293" data-name="Trazado 1295293" d="M38.155,40.482l0,1.475a13.265,13.265,0,0,1-1.914-.461l0-1.475a13.264,13.264,0,0,0,1.914.461Z" transform="translate(-36.237 -40.021)" fill="#5564d7"/>
            </g>
          </g>
          <g id="Grupo_1222911" data-name="Grupo 1222911" transform="translate(18.115 10.471)">
            <g id="Grupo_1222910" data-name="Grupo 1222910">
              <path id="Trazado_1295294" data-name="Trazado 1295294" d="M47.2,39.3l0,1.475-3.291,1.912,0-1.475Z" transform="translate(-43.908 -39.304)" fill="#6f93f1"/>
            </g>
          </g>
          <g id="Grupo_1222913" data-name="Grupo 1222913" transform="translate(16.158 11.509)">
            <g id="Grupo_1222912" data-name="Grupo 1222912">
              <path id="Trazado_1295295" data-name="Trazado 1295295" d="M44.515,40.9l0,1.475L42.553,41.5l0-1.475Z" transform="translate(-42.553 -40.023)" fill="#656fea"/>
            </g>
          </g>
          <g id="Grupo_1222915" data-name="Grupo 1222915" transform="translate(5.077 11.506)">
            <g id="Grupo_1222914" data-name="Grupo 1222914">
              <path id="Trazado_1295296" data-name="Trazado 1295296" d="M36.843,40.021l0,1.475-1.954.878,0-1.475Z" transform="translate(-34.884 -40.021)" fill="#656fea"/>
            </g>
          </g>
          <g id="Grupo_1222917" data-name="Grupo 1222917" transform="translate(1.765 10.472)">
            <g id="Grupo_1222916" data-name="Grupo 1222916">
              <path id="Trazado_1295297" data-name="Trazado 1295297" d="M35.908,41.217l0,1.475L32.592,40.78l0-1.475Z" transform="translate(-32.592 -39.305)" fill="#6f93f1"/>
            </g>
          </g>
          <g id="Grupo_1222919" data-name="Grupo 1222919" transform="translate(13.939 11.967)">
            <g id="Grupo_1222918" data-name="Grupo 1222918">
              <path id="Trazado_1295298" data-name="Trazado 1295298" d="M41.326,40.34l0,1.475-.3,1.423,0-1.475Z" transform="translate(-41.018 -40.34)" fill="#6bb4f9"/>
            </g>
          </g>
          <g id="Grupo_1222921" data-name="Grupo 1222921" transform="translate(8.946 11.967)">
            <g id="Grupo_1222920" data-name="Grupo 1222920">
              <path id="Trazado_1295299" data-name="Trazado 1295299" d="M37.886,41.763l0,1.475-.32-1.423,0-1.475Z" transform="translate(-37.562 -40.34)" fill="#656fea"/>
            </g>
          </g>
          <g id="Grupo_1222923" data-name="Grupo 1222923" transform="translate(0.004)">
            <g id="Grupo_1222922" data-name="Grupo 1222922">
              <path id="Trazado_1295300" data-name="Trazado 1295300" d="M49.488,44.44l-1.958-.875a14.427,14.427,0,0,1-1.914.458l-.3,1.423H40.639l-.32-1.423a13.264,13.264,0,0,1-1.914-.461l-1.954.878-3.312-1.912,1.5-1.133a4.645,4.645,0,0,1-.8-1.11l-2.459-.182L31.373,37.4l2.456-.181a4.7,4.7,0,0,1,.778-1.114l-1.516-1.131,3.291-1.912,1.958.875a14.352,14.352,0,0,1,1.921-.454l.3-1.423h4.672l.327,1.421a13.734,13.734,0,0,1,1.913.46l1.955-.878,3.312,1.912-1.51,1.135a4.6,4.6,0,0,1,.8,1.107l2.453.184.015,2.707-2.456.181a4.767,4.767,0,0,1-.785,1.11l1.516,1.131ZM39.013,41.033a8.678,8.678,0,0,0,7.875,0c2.168-1.26,2.158-3.3-.024-4.562a8.679,8.679,0,0,0-7.877,0c-2.168,1.26-2.158,3.3.026,4.563" transform="translate(-31.373 -32.057)" fill="#6bb4f9"/>
            </g>
          </g>
          <g id="Grupo_1222925" data-name="Grupo 1222925" transform="translate(9.266 13.39)">
            <g id="Grupo_1222924" data-name="Grupo 1222924">
              <path id="Trazado_1295301" data-name="Trazado 1295301" d="M42.461,41.325l0,1.475H37.783l0-1.475Z" transform="translate(-37.783 -41.325)" fill="#6f93f1"/>
            </g>
          </g>
        </g>
      </g>
    </g>
    <path id="Trazado_1295302" data-name="Trazado 1295302" d="M38.638,45.77v2.471a1.03,1.03,0,0,1-.592.838l-6.718,3.9a3.183,3.183,0,0,1-2.89,0l-6.776-3.9a1.049,1.049,0,0,1-.592-.838V45.756c0,.62-.188-.372.607-.824l6.718-3.915a3.153,3.153,0,0,1,2.875,0l6.762,3.915c.753.427.607,1.357.607.838Z" transform="translate(7.754 17.416)" fill="#5ec363"/>
    <g id="Grupo_1222939" data-name="Grupo 1222939" transform="translate(28.821 58.089)">
      <g id="Grupo_1222933" data-name="Grupo 1222933" transform="translate(0)">
        <g id="Grupo_1222932" data-name="Grupo 1222932">
          <g id="Grupo_1222929" data-name="Grupo 1222929" transform="translate(0 5.09)">
            <path id="Trazado_1295303" data-name="Trazado 1295303" d="M38.046,45.03l-6.72,3.905a3.207,3.207,0,0,1-2.9,0L21.665,45.03a1.013,1.013,0,0,1-.6-.835l0,2.474a1.013,1.013,0,0,0,.6.835l6.764,3.905a3.208,3.208,0,0,0,2.9,0l6.72-3.905a1,1,0,0,0,.587-.824l0-2.474A1,1,0,0,1,38.046,45.03Z" transform="translate(-21.062 -44.195)" fill="#5ec363"/>
          </g>
          <g id="Grupo_1222931" data-name="Grupo 1222931" transform="translate(0.004)">
            <g id="Grupo_1222930" data-name="Grupo 1222930">
              <path id="Trazado_1295304" data-name="Trazado 1295304" d="M38.025,44.925c.8.461.813,1.211.02,1.672L31.325,50.5a3.208,3.208,0,0,1-2.9,0L21.664,46.6a.882.882,0,0,1,0-1.672l6.72-3.905a3.147,3.147,0,0,1,2.876,0Z" transform="translate(-21.064 -40.672)" fill="#78e75a"/>
            </g>
          </g>
        </g>
      </g>
      <g id="Grupo_1222938" data-name="Grupo 1222938" transform="translate(5.299 3.028)">
        <g id="Grupo_1222935" data-name="Grupo 1222935">
          <g id="Grupo_1222934" data-name="Grupo 1222934">
            <path id="Trazado_1295305" data-name="Trazado 1295305" d="M25.218,43.055a.725.725,0,0,0-.008,1.368,2.628,2.628,0,0,0,2.379.01.729.729,0,0,0,0-1.383A2.61,2.61,0,0,0,25.218,43.055Z" transform="translate(-24.729 -42.768)" fill="#fff"/>
          </g>
        </g>
        <g id="Grupo_1222937" data-name="Grupo 1222937" transform="translate(2.172 1.269)">
          <g id="Grupo_1222936" data-name="Grupo 1222936">
            <path id="Trazado_1295306" data-name="Trazado 1295306" d="M27.341,44.3c-1.375.794-1.468,2.062-.292,2.925a.649.649,0,0,0,.62.01l4.764-2.75c.173-.1.174-.27-.015-.359a6.035,6.035,0,0,0-5.077.175Z" transform="translate(-26.233 -43.647)" fill="#fff"/>
          </g>
        </g>
      </g>
    </g>
  </g>
</svg>
