<svg xmlns="http://www.w3.org/2000/svg" width="45.698" height="64" viewBox="0 0 45.698 64">
  <g id="Grupo_1222991" data-name="Grupo 1222991" transform="translate(-11.151 -2)">
    <g id="Grupo_1222960" data-name="Grupo 1222960">
      <g id="Grupo_1222959" data-name="Grupo 1222959">
        <g id="Grupo_1222958" data-name="Grupo 1222958">
          <g id="Grupo_1222957" data-name="Grupo 1222957">
            <path id="Trazado_1295307" data-name="Trazado 1295307" d="M43.746,47.713a6.167,6.167,0,0,1-2.784,4.83L18.375,65.613a1.815,1.815,0,0,1-2.225.01,1.352,1.352,0,0,0,.229.19l-4.29-2.5a1.967,1.967,0,0,1-.808-1.8l-.03-10.23-.1-30.99a5.819,5.819,0,0,1,.968-2.98,5.517,5.517,0,0,1,1.826-1.86L32.2,4.893l4.33-2.51a1.949,1.949,0,0,1,1.985-.19l4.29,2.5v-.01a1.972,1.972,0,0,1,.818,1.8Z" fill="#f0f0f7"/>
            <g id="Grupo_1222940" data-name="Grupo 1222940">
              <path id="Trazado_1295308" data-name="Trazado 1295308" d="M40.825,4.886c1.544-.894,2.8-.178,2.8,1.6l.117,41.224a6.146,6.146,0,0,1-2.784,4.833L18.37,65.615c-1.544.894-2.8.178-2.8-1.6l-.117-41.224a6.146,6.146,0,0,1,2.784-4.833Z" fill="#f0f0f7"/>
            </g>
            <g id="Grupo_1222942" data-name="Grupo 1222942">
              <g id="Grupo_1222941" data-name="Grupo 1222941">
                <path id="Trazado_1295309" data-name="Trazado 1295309" d="M40.544,47,19.091,59.419a.336.336,0,0,1-.5-.291l-.1-37.8a.337.337,0,0,1,.168-.293l8.956-5.183a.648.648,0,0,0-.007.113c0,1.115.786,1.562,1.752,1A3.83,3.83,0,0,0,31.1,13.944a.554.554,0,0,0-.007-.107L40.1,8.621a.336.336,0,0,1,.5.291l.1,37.8a.337.337,0,0,1-.168.293Z" fill="#c2d0f9"/>
              </g>
            </g>
            <g id="Grupo_1222943" data-name="Grupo 1222943">
              <path id="Trazado_1295310" data-name="Trazado 1295310" d="M11.277,61.514a1.955,1.955,0,0,0,.81,1.8l4.3,2.5a1.982,1.982,0,0,1-.816-1.8l-.029-10.235-4.291-2.495Z" fill="#1d1e1e"/>
              <path id="Trazado_1295311" data-name="Trazado 1295311" d="M40.825,4.884a1.979,1.979,0,0,1,1.986-.2l-4.3-2.5a1.95,1.95,0,0,0-1.986.2l-4.325,2.5,4.3,2.5Z" fill="#1d1e1e"/>
            </g>
            <g id="Grupo_1222944" data-name="Grupo 1222944">
              <path id="Trazado_1295312" data-name="Trazado 1295312" d="M27,57.343a.7.7,0,0,1,.3.65,2.191,2.191,0,0,1-.988,1.73.7.7,0,0,1-.719.06l-.429-.25a.666.666,0,0,1-.289-.63,2.073,2.073,0,0,1,.339-1.06,1.841,1.841,0,0,1,.659-.67.715.715,0,0,1,.708-.07Z" fill="#3c4043"/>
              <path id="Trazado_1295313" data-name="Trazado 1295313" d="M31.265,54.883a.719.719,0,0,1,.3.65,2.228,2.228,0,0,1-1,1.73.7.7,0,0,1-.718.06l-.419-.25a.663.663,0,0,1-.3-.63,2.045,2.045,0,0,1,.339-1.06,2.011,2.011,0,0,1,.658-.67.708.708,0,0,1,.719-.07Z" fill="#3c4043"/>
              <path id="Trazado_1295314" data-name="Trazado 1295314" d="M35.815,53.073a2.2,2.2,0,0,1-1,1.73.619.619,0,0,1-.778-.01.23.23,0,0,0,.07.07l-.429-.25a.684.684,0,0,1-.289-.64,2.041,2.041,0,0,1,.339-1.05,1.955,1.955,0,0,1,.658-.68.71.71,0,0,1,.708-.06l.419.24a.7.7,0,0,1,.3.65Z" fill="#3c4043"/>
            </g>
            <g id="Grupo_1222954" data-name="Grupo 1222954">
              <g id="Grupo_1222947" data-name="Grupo 1222947">
                <g id="Grupo_1222945" data-name="Grupo 1222945">
                  <path id="Trazado_1295315" data-name="Trazado 1295315" d="M34.816,52.5a.706.706,0,0,1,.709-.066l-.427-.25a.717.717,0,0,0-.715.066,2.021,2.021,0,0,0-.659.677l.429.252A1.994,1.994,0,0,1,34.816,52.5Z" fill="#303335"/>
                  <path id="Trazado_1295316" data-name="Trazado 1295316" d="M33.819,54.227a2.08,2.08,0,0,1,.335-1.051l-.429-.252a2.08,2.08,0,0,0-.339,1.053.678.678,0,0,0,.3.638l.427.25A.688.688,0,0,1,33.819,54.227Z" fill="#1d1e1e"/>
                </g>
                <g id="Grupo_1222946" data-name="Grupo 1222946">
                  <path id="Trazado_1295317" data-name="Trazado 1295317" d="M34.814,52.5c.552-.32,1-.063,1,.568a2.2,2.2,0,0,1-1,1.73c-.552.32-1,.063-1-.573a2.2,2.2,0,0,1,1-1.725Z" fill="#3c4043"/>
                </g>
              </g>
              <g id="Grupo_1222950" data-name="Grupo 1222950">
                <g id="Grupo_1222948" data-name="Grupo 1222948">
                  <path id="Trazado_1295318" data-name="Trazado 1295318" d="M30.562,54.959a.706.706,0,0,1,.709-.066l-.427-.25a.717.717,0,0,0-.715.066,2.021,2.021,0,0,0-.659.677l.429.252A1.994,1.994,0,0,1,30.562,54.959Z" fill="#303335"/>
                  <path id="Trazado_1295319" data-name="Trazado 1295319" d="M29.565,56.688a2.08,2.08,0,0,1,.335-1.051l-.429-.252a2.08,2.08,0,0,0-.339,1.053.678.678,0,0,0,.3.638l.427.25A.688.688,0,0,1,29.565,56.688Z" fill="#1d1e1e"/>
                </g>
                <g id="Grupo_1222949" data-name="Grupo 1222949">
                  <path id="Trazado_1295320" data-name="Trazado 1295320" d="M30.56,54.961c.552-.32,1-.063,1,.568a2.2,2.2,0,0,1-1,1.73c-.552.32-1,.063-1-.573a2.2,2.2,0,0,1,1-1.725Z" fill="#3c4043"/>
                </g>
              </g>
              <g id="Grupo_1222953" data-name="Grupo 1222953">
                <g id="Grupo_1222951" data-name="Grupo 1222951">
                  <path id="Trazado_1295321" data-name="Trazado 1295321" d="M26.308,57.419a.706.706,0,0,1,.709-.066l-.427-.25a.717.717,0,0,0-.715.066,2.021,2.021,0,0,0-.659.677l.429.252A1.994,1.994,0,0,1,26.308,57.419Z" fill="#303335"/>
                  <path id="Trazado_1295322" data-name="Trazado 1295322" d="M25.31,59.149a2.08,2.08,0,0,1,.335-1.051l-.429-.252a2.08,2.08,0,0,0-.339,1.053.678.678,0,0,0,.3.638l.427.25A.688.688,0,0,1,25.31,59.149Z" fill="#1d1e1e"/>
                </g>
                <g id="Grupo_1222952" data-name="Grupo 1222952">
                  <path id="Trazado_1295323" data-name="Trazado 1295323" d="M26.305,57.422c.552-.32,1-.063,1,.568a2.2,2.2,0,0,1-1,1.73c-.552.32-1,.063-1-.573a2.2,2.2,0,0,1,1-1.725Z" fill="#3c4043"/>
                </g>
              </g>
            </g>
            <g id="Grupo_1222955" data-name="Grupo 1222955">
              <path id="Trazado_1295324" data-name="Trazado 1295324" d="M12.12,17.311a5.834,5.834,0,0,0-.965,2.98l.092,30.992,4.291,2.495L15.45,22.788a5.784,5.784,0,0,1,.964-2.98Z" fill="#252728"/>
              <path id="Trazado_1295325" data-name="Trazado 1295325" d="M18.235,17.958,36.5,7.386l-4.3-2.5L13.94,15.454a5.59,5.59,0,0,0-1.819,1.856l4.294,2.5a5.565,5.565,0,0,1,1.82-1.85Z" fill="#303335"/>
            </g>
            <g id="Grupo_1222956" data-name="Grupo 1222956" opacity="0.15">
              <path id="Trazado_1295326" data-name="Trazado 1295326" d="M32.981,12.742,18.575,54.417l-.013-5.908L29.491,16.881A3.867,3.867,0,0,0,31.1,13.944a.554.554,0,0,0-.007-.107Z" fill="#fff"/>
              <path id="Trazado_1295327" data-name="Trazado 1295327" d="M40.653,25.652l-9.2,26.615L21.119,58.242l16.69-48.29,2.3-1.328a.33.33,0,0,1,.5.287Z" fill="#fff"/>
            </g>
          </g>
        </g>
      </g>
    </g>
    <g id="Grupo_1222990" data-name="Grupo 1222990">
      <g id="Grupo_1222971" data-name="Grupo 1222971">
        <path id="Trazado_1295329" data-name="Trazado 1295329" d="M38.746,30.268A17.077,17.077,0,0,1,31,43.69c-2.167,1.251-4.129,1.363-5.544.534l.012.008-1.752-1.018c-1.4-.811-2.261-2.536-2.268-4.988a13.52,13.52,0,0,1,.725-4.217,18.1,18.1,0,0,1,5.355-8.031,12.144,12.144,0,0,1,1.67-1.174c2.16-1.248,4.118-1.363,5.532-.542l1.733,1.007c1.407.807,2.28,2.536,2.287,5Z" fill="#ffc239"/>
        <g id="Grupo_1222963" data-name="Grupo 1222963">
          <path id="Trazado_1295330" data-name="Trazado 1295330" d="M30.946,25.822c4.294-2.479,7.786-.489,7.8,4.445A17.08,17.08,0,0,1,31,43.69c-4.294,2.479-7.786.488-7.8-4.446a17.08,17.08,0,0,1,7.749-13.423Z" fill="#ffc239"/>
        </g>
        <g id="Grupo_1222964" data-name="Grupo 1222964">
          <path id="Trazado_1295331" data-name="Trazado 1295331" d="M30.945,25.822c2.161-1.248,4.119-1.364,5.533-.542l-1.752-1.018c-1.414-.821-3.371-.706-5.532.542a12.124,12.124,0,0,0-1.67,1.174L29.275,27a12.122,12.122,0,0,1,1.67-1.174Z" fill="#efa003"/>
          <path id="Trazado_1295332" data-name="Trazado 1295332" d="M29.275,27l-1.752-1.018a18.1,18.1,0,0,0-5.355,8.032l1.752,1.018A18.107,18.107,0,0,1,29.275,27Z" fill="#f9ac00"/>
          <path id="Trazado_1295333" data-name="Trazado 1295333" d="M22.169,34.01a13.542,13.542,0,0,0-.724,4.217c.007,2.452.873,4.177,2.268,4.988l1.752,1.018c-1.4-.812-2.261-2.536-2.268-4.988a13.543,13.543,0,0,1,.724-4.217Z" fill="#efa003"/>
        </g>
        <g id="Grupo_1222967" data-name="Grupo 1222967">
          <g id="Grupo_1222965" data-name="Grupo 1222965">
            <path id="Trazado_1295334" data-name="Trazado 1295334" d="M30.376,33.311c2.128-1.229,3.9-.5,4.288,1.606A1.437,1.437,0,0,1,34,36.225L26.779,40.4c-.425.245-.744-.015-.667-.54a9.709,9.709,0,0,1,4.265-6.544Z" fill="#efa003"/>
          </g>
          <g id="Grupo_1222966" data-name="Grupo 1222966">
            <path id="Trazado_1295335" data-name="Trazado 1295335" d="M30.365,29.235c.847-.489,1.536-.1,1.538.877a3.369,3.369,0,0,1-1.528,2.647c-.847.489-1.535.1-1.538-.877a3.368,3.368,0,0,1,1.528-2.647Z" fill="#efa003"/>
          </g>
        </g>
        <g id="Grupo_1222970" data-name="Grupo 1222970">
          <g id="Grupo_1222968" data-name="Grupo 1222968">
            <path id="Trazado_1295336" data-name="Trazado 1295336" d="M30.977,33.311c2.128-1.229,3.9-.5,4.288,1.606a1.437,1.437,0,0,1-.662,1.307L27.379,40.4c-.425.245-.744-.015-.667-.54a9.709,9.709,0,0,1,4.265-6.544Z" fill="#fff"/>
          </g>
          <g id="Grupo_1222969" data-name="Grupo 1222969">
            <path id="Trazado_1295337" data-name="Trazado 1295337" d="M30.965,29.235c.847-.489,1.536-.1,1.538.877a3.369,3.369,0,0,1-1.528,2.647c-.847.489-1.535.1-1.538-.877a3.368,3.368,0,0,1,1.528-2.647Z" fill="#fff"/>
          </g>
        </g>
      </g>
      <g id="Grupo_1222989" data-name="Grupo 1222989">
        <path id="Trazado_1295347" data-name="Trazado 1295347" d="M56.849,35.149A17.077,17.077,0,0,1,49.1,48.571c-2.167,1.251-4.129,1.363-5.544.534l.012.008-1.752-1.018c-1.4-.811-2.261-2.536-2.268-4.988a13.52,13.52,0,0,1,.725-4.217,18.1,18.1,0,0,1,5.355-8.031,12.144,12.144,0,0,1,1.67-1.174c2.16-1.248,4.118-1.363,5.532-.542l1.733,1.007c1.407.807,2.28,2.536,2.287,5Z" fill="#eb4336"/>
        <g id="Grupo_1222981" data-name="Grupo 1222981">
          <path id="Trazado_1295348" data-name="Trazado 1295348" d="M49.049,30.7c4.294-2.479,7.786-.489,7.8,4.445A17.08,17.08,0,0,1,49.1,48.571c-4.294,2.479-7.786.488-7.8-4.446A17.08,17.08,0,0,1,49.049,30.7Z" fill="#c2d0f9"/>
        </g>
        <g id="Grupo_1222982" data-name="Grupo 1222982">
          <path id="Trazado_1295349" data-name="Trazado 1295349" d="M49.048,30.7c2.161-1.248,4.119-1.364,5.533-.542l-1.752-1.018c-1.414-.821-3.371-.706-5.532.542a12.123,12.123,0,0,0-1.67,1.174l1.752,1.018a12.123,12.123,0,0,1,1.67-1.174Z" fill="#678aee"/>
          <path id="Trazado_1295350" data-name="Trazado 1295350" d="M47.378,31.877l-1.752-1.018a18.1,18.1,0,0,0-5.355,8.032l1.752,1.018a18.107,18.107,0,0,1,5.355-8.032Z" fill="#678aee"/>
          <path id="Trazado_1295351" data-name="Trazado 1295351" d="M40.272,38.89a13.542,13.542,0,0,0-.724,4.217c.007,2.452.873,4.177,2.268,4.988l1.752,1.018c-1.4-.812-2.261-2.536-2.268-4.988a13.543,13.543,0,0,1,.724-4.217Z" fill="#678aee"/>
        </g>
        <g id="Grupo_1222985" data-name="Grupo 1222985">
          <g id="Grupo_1222983" data-name="Grupo 1222983">
            <path id="Trazado_1295352" data-name="Trazado 1295352" d="M48.479,38.192c2.128-1.229,3.9-.5,4.288,1.606a1.437,1.437,0,0,1-.662,1.307l-7.224,4.171c-.425.245-.744-.015-.667-.54a9.709,9.709,0,0,1,4.265-6.544Z" fill="#d32626"/>
          </g>
          <g id="Grupo_1222984" data-name="Grupo 1222984">
            <path id="Trazado_1295353" data-name="Trazado 1295353" d="M48.468,34.115c.847-.489,1.536-.1,1.538.877a3.369,3.369,0,0,1-1.528,2.647c-.847.489-1.535.1-1.538-.877a3.368,3.368,0,0,1,1.528-2.647Z" fill="#d32626"/>
          </g>
        </g>
        <g id="Grupo_1222988" data-name="Grupo 1222988">
          <g id="Grupo_1222986" data-name="Grupo 1222986">
            <path id="Trazado_1295354" data-name="Trazado 1295354" d="M49.08,38.192c2.128-1.229,3.9-.5,4.288,1.606a1.437,1.437,0,0,1-.662,1.307l-7.224,4.171c-.425.245-.744-.015-.667-.54a9.709,9.709,0,0,1,4.265-6.544Z" fill="#fff"/>
          </g>
          <g id="Grupo_1222987" data-name="Grupo 1222987">
            <path id="Trazado_1295355" data-name="Trazado 1295355" d="M49.068,34.115c.847-.489,1.536-.1,1.538.877a3.369,3.369,0,0,1-1.528,2.647c-.847.489-1.535.1-1.538-.877a3.368,3.368,0,0,1,1.528-2.647Z" fill="#fff"/>
          </g>
        </g>
      </g>
    </g>
  </g>
</svg>
