<svg xmlns="http://www.w3.org/2000/svg" width="72" height="72" viewBox="0 0 72 72">
  <g id="Grupo_1220167" data-name="Grupo 1220167" transform="translate(-263.051 -3352)">
    <circle id="Elipse_13612" data-name="Elipse 13612" cx="36" cy="36" r="36" transform="translate(263.051 3352)" fill="#c2d0f8"/>
    <circle id="Elipse_13613" data-name="Elipse 13613" cx="29" cy="29" r="29" transform="translate(270.051 3359)" fill="#fff"/>
    <path id="Trazado_1307452" data-name="Trazado 1307452" d="M17.188-9.3q0,4.609-2.07,7.109A7.154,7.154,0,0,1,9.281.313,7.193,7.193,0,0,1,3.406-2.2Q1.328-4.719,1.328-9.3v-4.156q0-4.609,2.07-7.109a7.172,7.172,0,0,1,5.852-2.5,7.175,7.175,0,0,1,5.859,2.516q2.078,2.516,2.078,7.109Zm-5.266-4.828a8.114,8.114,0,0,0-.641-3.664A2.141,2.141,0,0,0,9.25-19a2.091,2.091,0,0,0-1.977,1.125,7.644,7.644,0,0,0-.664,3.406v5.813A8.175,8.175,0,0,0,7.25-4.93,2.149,2.149,0,0,0,9.281-3.75,2.121,2.121,0,0,0,11.266-4.9a7.8,7.8,0,0,0,.656-3.6ZM35.8,0H19.922V-3.437l7.313-7.687q2.7-3.078,2.7-4.891A3.4,3.4,0,0,0,29.3-18.25a2.287,2.287,0,0,0-1.859-.766,2.316,2.316,0,0,0-1.953,1.023,4.206,4.206,0,0,0-.75,2.555H19.453A7.471,7.471,0,0,1,20.5-19.3a7.341,7.341,0,0,1,2.906-2.773,8.633,8.633,0,0,1,4.156-1,8.493,8.493,0,0,1,5.68,1.7,6.08,6.08,0,0,1,1.992,4.891,7.1,7.1,0,0,1-.5,2.617A11.477,11.477,0,0,1,33.18-11.2a39.162,39.162,0,0,1-3.4,3.742L26.844-4.062H35.8Z" transform="translate(280.051 3398)" fill="#c2d0f8"/>
  </g>
</svg>
