<svg xmlns="http://www.w3.org/2000/svg" width="35.769" height="64.33" viewBox="0 0 35.769 64.33">
  <g id="Grupo_1220195" data-name="Grupo 1220195" transform="translate(35.769) rotate(90)">
    <g id="Grupo_78414" data-name="Grupo 78414" transform="translate(0 0)">
      <path id="Trazado_114078" data-name="Trazado 114078" d="M55.5,0c-2.53,0-3.779,2.709-4.783,4.886-1.016,2.2-1.7,3.553-3,3.553s-1.983-1.35-3-3.553C43.714,2.709,42.465,0,39.936,0s-3.779,2.709-4.783,4.886c-1.015,2.2-1.7,3.553-3,3.553s-1.982-1.35-3-3.553C28.156,2.709,26.907,0,24.377,0S20.6,2.71,19.6,4.888c-1.015,2.2-1.7,3.552-3,3.552s-1.98-1.35-3-3.552C12.6,2.709,11.355,0,8.826,0S5.049,2.709,4.045,4.888c-1.015,2.2-1.7,3.552-3,3.552C.47,8.439,0,9.07,0,9.846s.47,1.406,1.05,1.406c2.528,0,3.777-2.709,4.78-4.886,1.014-2.2,1.7-3.553,3-3.553s1.98,1.35,3,3.553c1,2.177,2.252,4.886,4.78,4.886s3.777-2.709,4.779-4.886c1.015-2.2,1.7-3.553,3-3.553s1.982,1.35,3,3.553c1,2.177,2.252,4.886,4.781,4.886s3.778-2.709,4.783-4.886c1.014-2.2,1.7-3.553,3-3.553s1.982,1.35,3,3.553c1,2.177,2.252,4.886,4.781,4.886S51.5,8.543,52.5,6.366c1.016-2.2,1.7-3.553,3-3.553s1.984,1.35,3,3.553c1,2.177,2.254,4.886,4.784,4.886.58,0,1.049-.629,1.049-1.406s-.469-1.406-1.049-1.406c-1.3,0-1.984-1.35-3-3.553C59.278,2.709,58.029,0,55.5,0Z" transform="translate(0 24.517)" fill="#ec5aca"/>
      <path id="Trazado_114079" data-name="Trazado 114079" d="M55.5,0c-2.53,0-3.779,2.71-4.783,4.886-1.016,2.2-1.7,3.555-3,3.555s-1.983-1.35-3-3.553C43.714,2.71,42.465,0,39.936,0s-3.779,2.71-4.783,4.888c-1.015,2.2-1.7,3.553-3,3.553s-1.982-1.35-3-3.553C28.156,2.71,26.907,0,24.377,0S20.6,2.712,19.6,4.888c-1.015,2.2-1.7,3.553-3,3.553s-1.98-1.35-3-3.553C12.6,2.71,11.355,0,8.826,0S5.049,2.71,4.045,4.888c-1.015,2.2-1.7,3.553-3,3.553C.47,8.441,0,9.07,0,9.847s.47,1.406,1.05,1.406c2.528,0,3.777-2.71,4.78-4.888,1.014-2.2,1.7-3.552,3-3.552s1.98,1.35,3,3.552c1,2.177,2.252,4.888,4.78,4.888s3.777-2.71,4.779-4.888c1.015-2.2,1.7-3.552,3-3.552s1.982,1.35,3,3.552c1,2.177,2.252,4.888,4.781,4.888s3.778-2.71,4.783-4.888c1.014-2.2,1.7-3.552,3-3.552s1.982,1.35,3,3.552c1,2.177,2.252,4.888,4.781,4.888S51.5,8.543,52.5,6.366c1.016-2.2,1.7-3.552,3-3.552s1.984,1.35,3,3.552c1,2.177,2.254,4.888,4.784,4.888.58,0,1.049-.63,1.049-1.406s-.469-1.406-1.049-1.406c-1.3,0-1.984-1.35-3-3.553C59.278,2.71,58.029,0,55.5,0Z" transform="translate(0 12.257)" fill="#ec5aca"/>
      <path id="Trazado_114080" data-name="Trazado 114080" d="M55.5,0c-2.53,0-3.779,2.709-4.783,4.886-1.016,2.2-1.7,3.553-3,3.553s-1.983-1.35-3-3.553C43.714,2.709,42.465,0,39.936,0s-3.779,2.709-4.783,4.886c-1.015,2.2-1.7,3.553-3,3.553s-1.982-1.35-3-3.553C28.156,2.709,26.907,0,24.377,0S20.6,2.709,19.6,4.886c-1.015,2.2-1.7,3.553-3,3.553s-1.98-1.35-3-3.553C12.6,2.709,11.355,0,8.826,0S5.049,2.709,4.045,4.886c-1.015,2.2-1.7,3.553-3,3.553C.47,8.439,0,9.068,0,9.846s.47,1.406,1.05,1.406c2.528,0,3.777-2.71,4.78-4.888,1.014-2.2,1.7-3.552,3-3.552s1.98,1.35,3,3.552c1,2.177,2.252,4.888,4.78,4.888s3.777-2.71,4.779-4.886c1.015-2.2,1.7-3.553,3-3.553s1.982,1.35,3,3.553c1,2.176,2.252,4.886,4.781,4.886s3.778-2.71,4.783-4.886c1.014-2.2,1.7-3.553,3-3.553s1.982,1.35,3,3.553c1,2.176,2.252,4.886,4.781,4.886S51.5,8.542,52.5,6.366c1.016-2.2,1.7-3.553,3-3.553s1.984,1.35,3,3.553c1,2.176,2.254,4.886,4.784,4.886.58,0,1.049-.63,1.049-1.406s-.469-1.406-1.049-1.406c-1.3,0-1.984-1.35-3-3.553C59.278,2.709,58.029,0,55.5,0Z" fill="#ec5aca"/>
    </g>
  </g>
</svg>
