<svg xmlns="http://www.w3.org/2000/svg" xmlns:xlink="http://www.w3.org/1999/xlink" width="168.104" height="132.829" viewBox="0 0 168.104 132.829">
  <defs>
    <clipPath id="clip-path">
      <rect id="Rectángulo_352791" data-name="Rectángulo 352791" width="132.829" height="67.763" fill="#5573c6"/>
    </clipPath>
    <clipPath id="clip-path-2">
      <rect id="Rectángulo_406249" data-name="Rectángulo 406249" width="54.088" height="32.132" fill="none"/>
    </clipPath>
    <clipPath id="clip-path-3">
      <rect id="Rectángulo_406259" data-name="Rectángulo 406259" width="45.02" height="33.401" fill="none"/>
    </clipPath>
    <clipPath id="clip-path-4">
      <path id="Trazado_911492" data-name="Trazado 911492" d="M.5,17.029A16.529,16.529,0,1,0,17.029.5,16.529,16.529,0,0,0,.5,17.029" transform="translate(-0.5 -0.5)" fill="#c2d0f8"/>
    </clipPath>
    <linearGradient id="linear-gradient" x1="-0.005" y1="1.005" x2="0.005" y2="1.005" gradientUnits="objectBoundingBox">
      <stop offset="0" stop-color="#ffa975"/>
      <stop offset="1" stop-color="#d43420"/>
    </linearGradient>
    <clipPath id="clip-path-6">
      <path id="Trazado_911494" data-name="Trazado 911494" d="M13.266,25.421A12.156,12.156,0,1,0,25.422,13.265,12.156,12.156,0,0,0,13.266,25.421" transform="translate(-13.266 -13.265)" fill="none"/>
    </clipPath>
    <radialGradient id="radial-gradient" cx="0.209" cy="0.256" r="0.5" gradientTransform="matrix(1, 0, 0, -1, 0, 2.374)" gradientUnits="objectBoundingBox">
      <stop offset="0" stop-color="#fff"/>
      <stop offset="1" stop-color="#d4d4d4"/>
    </radialGradient>
    <clipPath id="clip-path-7">
      <path id="Trazado_911495" data-name="Trazado 911495" d="M26.032,33.814a7.783,7.783,0,1,0,7.783-7.783,7.782,7.782,0,0,0-7.783,7.783" transform="translate(-26.032 -26.031)" fill="#12263f"/>
    </clipPath>
    <clipPath id="clip-path-8">
      <path id="Trazado_911496" data-name="Trazado 911496" d="M38.8,42.207A3.409,3.409,0,1,0,42.207,38.8,3.409,3.409,0,0,0,38.8,42.207" transform="translate(-38.798 -38.798)" fill="none"/>
    </clipPath>
    <radialGradient id="radial-gradient-2" cx="0.317" cy="0.334" r="0.5" gradientTransform="matrix(1, 0, 0, -1, 0, 5.898)" xlink:href="#radial-gradient"/>
    <clipPath id="clip-path-10">
      <path id="Trazado_911498" data-name="Trazado 911498" d="M98.914,6.8,98.34,9.106l2.287.652,5.686-2.966-2.454-.873.422-2.8Z" transform="translate(-98.34 -3.116)" fill="#12263f"/>
    </clipPath>
    <clipPath id="clip-path-11">
      <rect id="Rectángulo_402528" data-name="Rectángulo 402528" width="55.265" height="31.72" fill="none"/>
    </clipPath>
    <clipPath id="clip-path-13">
      <rect id="Rectángulo_402522" data-name="Rectángulo 402522" width="34.271" height="18.527" fill="none"/>
    </clipPath>
    <clipPath id="clip-path-14">
      <rect id="Rectángulo_402523" data-name="Rectángulo 402523" width="4.505" height="4.69" fill="none"/>
    </clipPath>
    <clipPath id="clip-path-15">
      <rect id="Rectángulo_402524" data-name="Rectángulo 402524" width="35.512" height="15.971" fill="none"/>
    </clipPath>
  </defs>
  <g id="Grupo_1229635" data-name="Grupo 1229635" transform="translate(-403.91 -1407.853)">
    <g id="Grupo_1114201" data-name="Grupo 1114201" transform="translate(403.91 1407.853)">
      <g id="Grupo_1114200" data-name="Grupo 1114200" transform="translate(0 0)">
        <g id="Grupo_1026385" data-name="Grupo 1026385" transform="translate(16.923 132.829) rotate(-90)">
          <g id="Grupo_1020694" data-name="Grupo 1020694" transform="translate(0 0)">
            <g id="Enmascarar_grupo_1018593" data-name="Enmascarar grupo 1018593" transform="translate(0)" clip-path="url(#clip-path)">
              <path id="Trazado_151731" data-name="Trazado 151731" d="M63.245,99.86A36.615,36.615,0,1,1,99.86,63.244,36.657,36.657,0,0,1,63.245,99.86m0,26.629A63.244,63.244,0,1,0,0,63.244,63.244,63.244,0,0,0,63.245,126.489Z" transform="translate(2.744 4.519)" fill="#ffe7a5"/>
            </g>
            <g id="Grupo_1018971" data-name="Grupo 1018971" transform="translate(15.862 67.082)">
              <path id="Trazado_145969" data-name="Trazado 145969" d="M37.457,0A37.457,37.457,0,1,1,0,37.457,37.457,37.457,0,0,1,37.457,0Z" transform="translate(0 76.01) rotate(-90)" fill="#deeaff" opacity="0.444" style="mix-blend-mode: multiply;isolation: isolate"/>
              <path id="Trazado_145971" data-name="Trazado 145971" d="M4.275,0A4.275,4.275,0,1,1,0,4.275,4.275,4.275,0,0,1,4.275,0Z" transform="translate(63.32 59.121) rotate(-90)" fill="#31313c" opacity="0.444" style="mix-blend-mode: multiply;isolation: isolate"/>
              <g id="Grupo_80270" data-name="Grupo 80270" transform="translate(26.714)">
                <path id="Trazado_145968" data-name="Trazado 145968" d="M42.049,0A42.049,42.049,0,1,1,0,42.049,42.049,42.049,0,0,1,42.049,0Z" transform="translate(0)" fill="#31313c" opacity="0.444" style="mix-blend-mode: multiply;isolation: isolate"/>
                <g id="Grupo_78276" data-name="Grupo 78276" transform="translate(16.417 17.383)">
                  <g id="Grupo_53306" data-name="Grupo 53306">
                    <path id="Trazado_99200" data-name="Trazado 99200" d="M1.142.546a.559.559,0,0,1-.571.546A.559.559,0,0,1,0,.546.559.559,0,0,1,.571,0,.559.559,0,0,1,1.142.546Z" fill="#fff"/>
                    <path id="Trazado_99201" data-name="Trazado 99201" d="M1.142.546a.559.559,0,0,1-.571.546A.559.559,0,0,1,0,.546.559.559,0,0,1,.571,0,.559.559,0,0,1,1.142.546Z" transform="translate(5.139)" fill="#fff"/>
                    <path id="Trazado_99202" data-name="Trazado 99202" d="M1.142.546a.559.559,0,0,1-.571.546A.559.559,0,0,1,0,.546.559.559,0,0,1,.571,0,.559.559,0,0,1,1.142.546Z" transform="translate(10.277)" fill="#fff"/>
                    <path id="Trazado_99203" data-name="Trazado 99203" d="M1.142.546a.559.559,0,0,1-.571.546A.559.559,0,0,1,0,.546.559.559,0,0,1,.571,0,.559.559,0,0,1,1.142.546Z" transform="translate(15.416)" fill="#fff"/>
                    <path id="Trazado_99204" data-name="Trazado 99204" d="M1.142.546a.559.559,0,0,1-.571.546A.559.559,0,0,1,0,.546.559.559,0,0,1,.571,0,.559.559,0,0,1,1.142.546Z" transform="translate(20.555)" fill="#fff"/>
                    <path id="Trazado_99205" data-name="Trazado 99205" d="M1.142.546a.559.559,0,0,1-.571.546A.559.559,0,0,1,0,.546.559.559,0,0,1,.571,0,.559.559,0,0,1,1.142.546Z" transform="translate(25.694)" fill="#fff"/>
                    <path id="Trazado_99206" data-name="Trazado 99206" d="M1.142.546a.559.559,0,0,1-.571.546A.559.559,0,0,1,0,.546.559.559,0,0,1,.571,0,.559.559,0,0,1,1.142.546Z" transform="translate(30.833)" fill="#fff"/>
                    <path id="Trazado_99207" data-name="Trazado 99207" d="M1.142.546a.559.559,0,0,1-.571.546A.559.559,0,0,1,0,.546.559.559,0,0,1,.571,0,.559.559,0,0,1,1.142.546Z" transform="translate(35.971)" fill="#fff"/>
                    <path id="Trazado_99208" data-name="Trazado 99208" d="M1.142.546a.559.559,0,0,1-.571.546A.559.559,0,0,1,0,.546.559.559,0,0,1,.571,0,.559.559,0,0,1,1.142.546Z" transform="translate(41.11)" fill="#fff"/>
                    <path id="Trazado_99209" data-name="Trazado 99209" d="M1.142.546a.559.559,0,0,1-.571.546A.559.559,0,0,1,0,.546.559.559,0,0,1,.571,0,.559.559,0,0,1,1.142.546Z" transform="translate(46.249)" fill="#fff"/>
                    <path id="Trazado_99210" data-name="Trazado 99210" d="M1.142.546a.559.559,0,0,1-.571.546A.559.559,0,0,1,0,.546.559.559,0,0,1,.571,0,.559.559,0,0,1,1.142.546Z" transform="translate(51.388)" fill="#fff"/>
                  </g>
                  <g id="Grupo_53307" data-name="Grupo 53307" transform="translate(0 4.368)">
                    <path id="Trazado_99211" data-name="Trazado 99211" d="M1.142.546a.559.559,0,0,1-.571.546A.559.559,0,0,1,0,.546.559.559,0,0,1,.571,0,.559.559,0,0,1,1.142.546Z" fill="#fff"/>
                    <path id="Trazado_99212" data-name="Trazado 99212" d="M1.142.546a.559.559,0,0,1-.571.546A.559.559,0,0,1,0,.546.559.559,0,0,1,.571,0,.559.559,0,0,1,1.142.546Z" transform="translate(5.139)" fill="#fff"/>
                    <path id="Trazado_99213" data-name="Trazado 99213" d="M1.142.546a.559.559,0,0,1-.571.546A.559.559,0,0,1,0,.546.559.559,0,0,1,.571,0,.559.559,0,0,1,1.142.546Z" transform="translate(10.277)" fill="#fff"/>
                    <path id="Trazado_99214" data-name="Trazado 99214" d="M1.142.546a.559.559,0,0,1-.571.546A.559.559,0,0,1,0,.546.559.559,0,0,1,.571,0,.559.559,0,0,1,1.142.546Z" transform="translate(15.416)" fill="#fff"/>
                    <path id="Trazado_99215" data-name="Trazado 99215" d="M1.142.546a.559.559,0,0,1-.571.546A.559.559,0,0,1,0,.546.559.559,0,0,1,.571,0,.559.559,0,0,1,1.142.546Z" transform="translate(20.555)" fill="#fff"/>
                    <path id="Trazado_99216" data-name="Trazado 99216" d="M1.142.546a.559.559,0,0,1-.571.546A.559.559,0,0,1,0,.546.559.559,0,0,1,.571,0,.559.559,0,0,1,1.142.546Z" transform="translate(25.694)" fill="#fff"/>
                    <path id="Trazado_99217" data-name="Trazado 99217" d="M1.142.546a.559.559,0,0,1-.571.546A.559.559,0,0,1,0,.546.559.559,0,0,1,.571,0,.559.559,0,0,1,1.142.546Z" transform="translate(30.833)" fill="#fff"/>
                    <path id="Trazado_99218" data-name="Trazado 99218" d="M1.142.546a.559.559,0,0,1-.571.546A.559.559,0,0,1,0,.546.559.559,0,0,1,.571,0,.559.559,0,0,1,1.142.546Z" transform="translate(35.971)" fill="#fff"/>
                    <path id="Trazado_99219" data-name="Trazado 99219" d="M1.142.546a.559.559,0,0,1-.571.546A.559.559,0,0,1,0,.546.559.559,0,0,1,.571,0,.559.559,0,0,1,1.142.546Z" transform="translate(41.11)" fill="#fff"/>
                    <path id="Trazado_99220" data-name="Trazado 99220" d="M1.142.546a.559.559,0,0,1-.571.546A.559.559,0,0,1,0,.546.559.559,0,0,1,.571,0,.559.559,0,0,1,1.142.546Z" transform="translate(46.249)" fill="#fff"/>
                    <path id="Trazado_99221" data-name="Trazado 99221" d="M1.142.546a.559.559,0,0,1-.571.546A.559.559,0,0,1,0,.546.559.559,0,0,1,.571,0,.559.559,0,0,1,1.142.546Z" transform="translate(51.388)" fill="#fff"/>
                  </g>
                  <g id="Grupo_53308" data-name="Grupo 53308" transform="translate(0 8.737)">
                    <ellipse id="Elipse_3955" data-name="Elipse 3955" cx="0.571" cy="0.546" rx="0.571" ry="0.546" fill="#fff"/>
                    <path id="Trazado_99222" data-name="Trazado 99222" d="M1.142.546a.559.559,0,0,1-.571.546A.559.559,0,0,1,0,.546.559.559,0,0,1,.571,0,.559.559,0,0,1,1.142.546Z" transform="translate(5.139 0)" fill="#fff"/>
                    <ellipse id="Elipse_3956" data-name="Elipse 3956" cx="0.571" cy="0.546" rx="0.571" ry="0.546" transform="translate(10.278)" fill="#fff"/>
                    <path id="Trazado_99223" data-name="Trazado 99223" d="M1.142.546a.559.559,0,0,1-.571.546A.559.559,0,0,1,0,.546.559.559,0,0,1,.571,0,.559.559,0,0,1,1.142.546Z" transform="translate(15.416 0)" fill="#fff"/>
                    <path id="Trazado_99224" data-name="Trazado 99224" d="M1.142.546a.559.559,0,0,1-.571.546A.559.559,0,0,1,0,.546.559.559,0,0,1,.571,0,.559.559,0,0,1,1.142.546Z" transform="translate(20.555 0)" fill="#fff"/>
                    <ellipse id="Elipse_3957" data-name="Elipse 3957" cx="0.571" cy="0.546" rx="0.571" ry="0.546" transform="translate(25.694)" fill="#fff"/>
                    <path id="Trazado_99225" data-name="Trazado 99225" d="M1.142.546a.56.56,0,0,1-.571.546A.559.559,0,0,1,0,.546.559.559,0,0,1,.571,0,.559.559,0,0,1,1.142.546Z" transform="translate(30.833 0)" fill="#fff"/>
                    <ellipse id="Elipse_3958" data-name="Elipse 3958" cx="0.571" cy="0.546" rx="0.571" ry="0.546" transform="translate(35.972)" fill="#fff"/>
                    <ellipse id="Elipse_3959" data-name="Elipse 3959" cx="0.571" cy="0.546" rx="0.571" ry="0.546" transform="translate(41.11)" fill="#fff"/>
                    <path id="Trazado_99226" data-name="Trazado 99226" d="M1.142.546a.56.56,0,0,1-.571.546A.559.559,0,0,1,0,.546.559.559,0,0,1,.571,0,.559.559,0,0,1,1.142.546Z" transform="translate(46.249 0)" fill="#fff"/>
                    <path id="Trazado_99227" data-name="Trazado 99227" d="M1.142.546a.559.559,0,0,1-.571.546A.559.559,0,0,1,0,.546.559.559,0,0,1,.571,0,.559.559,0,0,1,1.142.546Z" transform="translate(51.388 0)" fill="#fff"/>
                  </g>
                  <g id="Grupo_53309" data-name="Grupo 53309" transform="translate(0 13.105)">
                    <ellipse id="Elipse_3960" data-name="Elipse 3960" cx="0.571" cy="0.546" rx="0.571" ry="0.546" transform="translate(0 0)" fill="#fff"/>
                    <path id="Trazado_99228" data-name="Trazado 99228" d="M1.142.546a.559.559,0,0,1-.571.546A.559.559,0,0,1,0,.546.559.559,0,0,1,.571,0,.559.559,0,0,1,1.142.546Z" transform="translate(5.139)" fill="#fff"/>
                    <ellipse id="Elipse_3961" data-name="Elipse 3961" cx="0.571" cy="0.546" rx="0.571" ry="0.546" transform="translate(10.278 0)" fill="#fff"/>
                    <path id="Trazado_99229" data-name="Trazado 99229" d="M1.142.546a.559.559,0,0,1-.571.546A.559.559,0,0,1,0,.546.559.559,0,0,1,.571,0,.559.559,0,0,1,1.142.546Z" transform="translate(15.416)" fill="#fff"/>
                    <path id="Trazado_99230" data-name="Trazado 99230" d="M1.142.546a.559.559,0,0,1-.571.546A.559.559,0,0,1,0,.546.559.559,0,0,1,.571,0,.559.559,0,0,1,1.142.546Z" transform="translate(20.555)" fill="#fff"/>
                    <ellipse id="Elipse_3962" data-name="Elipse 3962" cx="0.571" cy="0.546" rx="0.571" ry="0.546" transform="translate(25.694 0)" fill="#fff"/>
                    <path id="Trazado_99231" data-name="Trazado 99231" d="M1.142.546a.559.559,0,0,1-.571.546A.559.559,0,0,1,0,.546.559.559,0,0,1,.571,0,.56.56,0,0,1,1.142.546Z" transform="translate(30.833)" fill="#fff"/>
                    <ellipse id="Elipse_3963" data-name="Elipse 3963" cx="0.571" cy="0.546" rx="0.571" ry="0.546" transform="translate(35.972 0)" fill="#fff"/>
                    <ellipse id="Elipse_3964" data-name="Elipse 3964" cx="0.571" cy="0.546" rx="0.571" ry="0.546" transform="translate(41.11 0)" fill="#fff"/>
                    <path id="Trazado_99232" data-name="Trazado 99232" d="M1.142.546a.559.559,0,0,1-.571.546A.559.559,0,0,1,0,.546.559.559,0,0,1,.571,0,.56.56,0,0,1,1.142.546Z" transform="translate(46.249)" fill="#fff"/>
                    <path id="Trazado_99233" data-name="Trazado 99233" d="M1.142.546a.559.559,0,0,1-.571.546A.559.559,0,0,1,0,.546.559.559,0,0,1,.571,0,.559.559,0,0,1,1.142.546Z" transform="translate(51.388)" fill="#fff"/>
                  </g>
                  <g id="Grupo_53310" data-name="Grupo 53310" transform="translate(0 17.473)">
                    <path id="Trazado_99234" data-name="Trazado 99234" d="M1.142.546a.559.559,0,0,1-.571.546A.559.559,0,0,1,0,.546.559.559,0,0,1,.571,0,.559.559,0,0,1,1.142.546Z" transform="translate(0 0)" fill="#fff"/>
                    <path id="Trazado_99235" data-name="Trazado 99235" d="M1.142.546a.559.559,0,0,1-.571.546A.559.559,0,0,1,0,.546.559.559,0,0,1,.571,0,.559.559,0,0,1,1.142.546Z" transform="translate(5.139 0)" fill="#fff"/>
                    <path id="Trazado_99236" data-name="Trazado 99236" d="M1.142.546a.559.559,0,0,1-.571.546A.559.559,0,0,1,0,.546.559.559,0,0,1,.571,0,.559.559,0,0,1,1.142.546Z" transform="translate(10.277 0)" fill="#fff"/>
                    <path id="Trazado_99237" data-name="Trazado 99237" d="M1.142.546a.559.559,0,0,1-.571.546A.559.559,0,0,1,0,.546.559.559,0,0,1,.571,0,.559.559,0,0,1,1.142.546Z" transform="translate(15.416 0)" fill="#fff"/>
                    <path id="Trazado_99238" data-name="Trazado 99238" d="M1.142.546a.559.559,0,0,1-.571.546A.559.559,0,0,1,0,.546.559.559,0,0,1,.571,0,.559.559,0,0,1,1.142.546Z" transform="translate(20.555 0)" fill="#fff"/>
                    <path id="Trazado_99239" data-name="Trazado 99239" d="M1.142.546a.559.559,0,0,1-.571.546A.559.559,0,0,1,0,.546.559.559,0,0,1,.571,0,.559.559,0,0,1,1.142.546Z" transform="translate(25.694 0)" fill="#fff"/>
                    <path id="Trazado_99240" data-name="Trazado 99240" d="M1.142.546a.559.559,0,0,1-.571.546A.559.559,0,0,1,0,.546.559.559,0,0,1,.571,0,.559.559,0,0,1,1.142.546Z" transform="translate(30.833 0)" fill="#fff"/>
                    <path id="Trazado_99241" data-name="Trazado 99241" d="M1.142.546a.559.559,0,0,1-.571.546A.559.559,0,0,1,0,.546.559.559,0,0,1,.571,0,.559.559,0,0,1,1.142.546Z" transform="translate(35.971 0)" fill="#fff"/>
                    <path id="Trazado_99242" data-name="Trazado 99242" d="M1.142.546a.559.559,0,0,1-.571.546A.559.559,0,0,1,0,.546.559.559,0,0,1,.571,0,.559.559,0,0,1,1.142.546Z" transform="translate(41.11 0)" fill="#fff"/>
                    <path id="Trazado_99243" data-name="Trazado 99243" d="M1.142.546a.559.559,0,0,1-.571.546A.559.559,0,0,1,0,.546.559.559,0,0,1,.571,0,.559.559,0,0,1,1.142.546Z" transform="translate(46.249 0)" fill="#fff"/>
                    <path id="Trazado_99244" data-name="Trazado 99244" d="M1.142.546a.559.559,0,0,1-.571.546A.559.559,0,0,1,0,.546.559.559,0,0,1,.571,0,.559.559,0,0,1,1.142.546Z" transform="translate(51.388 0)" fill="#fff"/>
                  </g>
                  <g id="Grupo_53311" data-name="Grupo 53311" transform="translate(0 21.841)">
                    <ellipse id="Elipse_3965" data-name="Elipse 3965" cx="0.571" cy="0.546" rx="0.571" ry="0.546" transform="translate(0 0)" fill="#fff"/>
                    <path id="Trazado_99245" data-name="Trazado 99245" d="M1.142.546a.559.559,0,0,1-.571.546A.559.559,0,0,1,0,.546.559.559,0,0,1,.571,0,.559.559,0,0,1,1.142.546Z" transform="translate(5.139)" fill="#fff"/>
                    <ellipse id="Elipse_3966" data-name="Elipse 3966" cx="0.571" cy="0.546" rx="0.571" ry="0.546" transform="translate(10.278 0)" fill="#fff"/>
                    <path id="Trazado_99246" data-name="Trazado 99246" d="M1.142.546a.559.559,0,0,1-.571.546A.559.559,0,0,1,0,.546.559.559,0,0,1,.571,0,.559.559,0,0,1,1.142.546Z" transform="translate(15.416)" fill="#fff"/>
                    <path id="Trazado_99247" data-name="Trazado 99247" d="M1.142.546a.559.559,0,0,1-.571.546A.559.559,0,0,1,0,.546.559.559,0,0,1,.571,0,.559.559,0,0,1,1.142.546Z" transform="translate(20.555)" fill="#fff"/>
                    <ellipse id="Elipse_3967" data-name="Elipse 3967" cx="0.571" cy="0.546" rx="0.571" ry="0.546" transform="translate(25.694 0)" fill="#fff"/>
                    <path id="Trazado_99248" data-name="Trazado 99248" d="M1.142.546a.559.559,0,0,1-.571.546A.559.559,0,0,1,0,.546.559.559,0,0,1,.571,0,.559.559,0,0,1,1.142.546Z" transform="translate(30.833)" fill="#fff"/>
                    <ellipse id="Elipse_3968" data-name="Elipse 3968" cx="0.571" cy="0.546" rx="0.571" ry="0.546" transform="translate(35.972 0)" fill="#fff"/>
                    <ellipse id="Elipse_3969" data-name="Elipse 3969" cx="0.571" cy="0.546" rx="0.571" ry="0.546" transform="translate(41.11 0)" fill="#fff"/>
                    <path id="Trazado_99249" data-name="Trazado 99249" d="M1.142.546a.559.559,0,0,1-.571.546A.559.559,0,0,1,0,.546.559.559,0,0,1,.571,0,.559.559,0,0,1,1.142.546Z" transform="translate(46.249)" fill="#fff"/>
                    <path id="Trazado_99250" data-name="Trazado 99250" d="M1.142.546a.559.559,0,0,1-.571.546A.559.559,0,0,1,0,.546.559.559,0,0,1,.571,0,.559.559,0,0,1,1.142.546Z" transform="translate(51.388)" fill="#fff"/>
                  </g>
                  <g id="Grupo_53312" data-name="Grupo 53312" transform="translate(0 26.21)">
                    <ellipse id="Elipse_3970" data-name="Elipse 3970" cx="0.571" cy="0.546" rx="0.571" ry="0.546" fill="#fff"/>
                    <path id="Trazado_99251" data-name="Trazado 99251" d="M1.142.546a.559.559,0,0,1-.571.546A.559.559,0,0,1,0,.546.559.559,0,0,1,.571,0,.559.559,0,0,1,1.142.546Z" transform="translate(5.139 0)" fill="#fff"/>
                    <ellipse id="Elipse_3971" data-name="Elipse 3971" cx="0.571" cy="0.546" rx="0.571" ry="0.546" transform="translate(10.278)" fill="#fff"/>
                    <path id="Trazado_99252" data-name="Trazado 99252" d="M1.142.546a.559.559,0,0,1-.571.546A.559.559,0,0,1,0,.546.559.559,0,0,1,.571,0,.559.559,0,0,1,1.142.546Z" transform="translate(15.416 0)" fill="#fff"/>
                    <path id="Trazado_99253" data-name="Trazado 99253" d="M1.142.546a.559.559,0,0,1-.571.546A.559.559,0,0,1,0,.546.559.559,0,0,1,.571,0,.559.559,0,0,1,1.142.546Z" transform="translate(20.555 0)" fill="#fff"/>
                    <ellipse id="Elipse_3972" data-name="Elipse 3972" cx="0.571" cy="0.546" rx="0.571" ry="0.546" transform="translate(25.694)" fill="#fff"/>
                    <path id="Trazado_99254" data-name="Trazado 99254" d="M1.142.546a.559.559,0,0,1-.571.546A.559.559,0,0,1,0,.546.559.559,0,0,1,.571,0,.559.559,0,0,1,1.142.546Z" transform="translate(30.833 0)" fill="#fff"/>
                    <ellipse id="Elipse_3973" data-name="Elipse 3973" cx="0.571" cy="0.546" rx="0.571" ry="0.546" transform="translate(35.972)" fill="#fff"/>
                    <ellipse id="Elipse_3974" data-name="Elipse 3974" cx="0.571" cy="0.546" rx="0.571" ry="0.546" transform="translate(41.11)" fill="#fff"/>
                    <path id="Trazado_99255" data-name="Trazado 99255" d="M1.142.546a.559.559,0,0,1-.571.546A.559.559,0,0,1,0,.546.559.559,0,0,1,.571,0,.559.559,0,0,1,1.142.546Z" transform="translate(46.249 0)" fill="#fff"/>
                    <path id="Trazado_99256" data-name="Trazado 99256" d="M1.142.546a.559.559,0,0,1-.571.546A.559.559,0,0,1,0,.546.559.559,0,0,1,.571,0,.559.559,0,0,1,1.142.546Z" transform="translate(51.388 0)" fill="#fff"/>
                  </g>
                  <g id="Grupo_53313" data-name="Grupo 53313" transform="translate(0 30.578)">
                    <path id="Trazado_99257" data-name="Trazado 99257" d="M1.142.546a.559.559,0,0,1-.571.546A.559.559,0,0,1,0,.546.559.559,0,0,1,.571,0,.559.559,0,0,1,1.142.546Z" transform="translate(0 0)" fill="#fff"/>
                    <path id="Trazado_99258" data-name="Trazado 99258" d="M1.142.546a.559.559,0,0,1-.571.546A.559.559,0,0,1,0,.546.559.559,0,0,1,.571,0,.559.559,0,0,1,1.142.546Z" transform="translate(5.139 0)" fill="#fff"/>
                    <path id="Trazado_99259" data-name="Trazado 99259" d="M1.142.546a.559.559,0,0,1-.571.546A.559.559,0,0,1,0,.546.559.559,0,0,1,.571,0,.559.559,0,0,1,1.142.546Z" transform="translate(10.277 0)" fill="#fff"/>
                    <path id="Trazado_99260" data-name="Trazado 99260" d="M1.142.546a.559.559,0,0,1-.571.546A.559.559,0,0,1,0,.546.559.559,0,0,1,.571,0,.559.559,0,0,1,1.142.546Z" transform="translate(15.416 0)" fill="#fff"/>
                    <path id="Trazado_99261" data-name="Trazado 99261" d="M1.142.546a.559.559,0,0,1-.571.546A.559.559,0,0,1,0,.546.559.559,0,0,1,.571,0,.559.559,0,0,1,1.142.546Z" transform="translate(20.555 0)" fill="#fff"/>
                    <path id="Trazado_99262" data-name="Trazado 99262" d="M1.142.546a.559.559,0,0,1-.571.546A.559.559,0,0,1,0,.546.559.559,0,0,1,.571,0,.559.559,0,0,1,1.142.546Z" transform="translate(25.694 0)" fill="#fff"/>
                    <path id="Trazado_99263" data-name="Trazado 99263" d="M1.142.546a.559.559,0,0,1-.571.546A.559.559,0,0,1,0,.546.559.559,0,0,1,.571,0,.559.559,0,0,1,1.142.546Z" transform="translate(30.833 0)" fill="#fff"/>
                    <path id="Trazado_99264" data-name="Trazado 99264" d="M1.142.546a.559.559,0,0,1-.571.546A.559.559,0,0,1,0,.546.559.559,0,0,1,.571,0,.559.559,0,0,1,1.142.546Z" transform="translate(35.971 0)" fill="#fff"/>
                    <path id="Trazado_99265" data-name="Trazado 99265" d="M1.142.546a.559.559,0,0,1-.571.546A.559.559,0,0,1,0,.546.559.559,0,0,1,.571,0,.559.559,0,0,1,1.142.546Z" transform="translate(41.11 0)" fill="#fff"/>
                    <path id="Trazado_99266" data-name="Trazado 99266" d="M1.142.546a.559.559,0,0,1-.571.546A.559.559,0,0,1,0,.546.559.559,0,0,1,.571,0,.559.559,0,0,1,1.142.546Z" transform="translate(46.249 0)" fill="#fff"/>
                    <path id="Trazado_99267" data-name="Trazado 99267" d="M1.142.546a.559.559,0,0,1-.571.546A.559.559,0,0,1,0,.546.559.559,0,0,1,.571,0,.559.559,0,0,1,1.142.546Z" transform="translate(51.388 0)" fill="#fff"/>
                  </g>
                  <g id="Grupo_53314" data-name="Grupo 53314" transform="translate(0 34.946)">
                    <ellipse id="Elipse_3975" data-name="Elipse 3975" cx="0.571" cy="0.546" rx="0.571" ry="0.546" fill="#fff"/>
                    <path id="Trazado_99268" data-name="Trazado 99268" d="M1.142.546a.559.559,0,0,1-.571.546A.559.559,0,0,1,0,.546.559.559,0,0,1,.571,0,.559.559,0,0,1,1.142.546Z" transform="translate(5.139 0)" fill="#fff"/>
                    <ellipse id="Elipse_3976" data-name="Elipse 3976" cx="0.571" cy="0.546" rx="0.571" ry="0.546" transform="translate(10.278)" fill="#fff"/>
                    <path id="Trazado_99269" data-name="Trazado 99269" d="M1.142.546a.559.559,0,0,1-.571.546A.559.559,0,0,1,0,.546.559.559,0,0,1,.571,0,.559.559,0,0,1,1.142.546Z" transform="translate(15.416 0)" fill="#fff"/>
                    <path id="Trazado_99270" data-name="Trazado 99270" d="M1.142.546a.559.559,0,0,1-.571.546A.559.559,0,0,1,0,.546.559.559,0,0,1,.571,0,.559.559,0,0,1,1.142.546Z" transform="translate(20.555 0)" fill="#fff"/>
                    <ellipse id="Elipse_3977" data-name="Elipse 3977" cx="0.571" cy="0.546" rx="0.571" ry="0.546" transform="translate(25.694)" fill="#fff"/>
                    <path id="Trazado_99271" data-name="Trazado 99271" d="M1.142.546a.56.56,0,0,1-.571.546A.559.559,0,0,1,0,.546.559.559,0,0,1,.571,0,.559.559,0,0,1,1.142.546Z" transform="translate(30.833 0)" fill="#fff"/>
                    <ellipse id="Elipse_3978" data-name="Elipse 3978" cx="0.571" cy="0.546" rx="0.571" ry="0.546" transform="translate(35.972)" fill="#fff"/>
                    <ellipse id="Elipse_3979" data-name="Elipse 3979" cx="0.571" cy="0.546" rx="0.571" ry="0.546" transform="translate(41.11)" fill="#fff"/>
                    <path id="Trazado_99272" data-name="Trazado 99272" d="M1.142.546a.56.56,0,0,1-.571.546A.559.559,0,0,1,0,.546.559.559,0,0,1,.571,0,.559.559,0,0,1,1.142.546Z" transform="translate(46.249 0)" fill="#fff"/>
                    <path id="Trazado_99273" data-name="Trazado 99273" d="M1.142.546a.559.559,0,0,1-.571.546A.559.559,0,0,1,0,.546.559.559,0,0,1,.571,0,.559.559,0,0,1,1.142.546Z" transform="translate(51.388 0)" fill="#fff"/>
                  </g>
                  <g id="Grupo_53315" data-name="Grupo 53315" transform="translate(0 39.314)">
                    <path id="Trazado_99274" data-name="Trazado 99274" d="M1.142.546a.559.559,0,0,1-.571.546A.559.559,0,0,1,0,.546.559.559,0,0,1,.571,0,.559.559,0,0,1,1.142.546Z" transform="translate(0 0)" fill="#fff"/>
                    <path id="Trazado_99275" data-name="Trazado 99275" d="M1.142.546a.559.559,0,0,1-.571.546A.559.559,0,0,1,0,.546.559.559,0,0,1,.571,0,.559.559,0,0,1,1.142.546Z" transform="translate(5.139 0)" fill="#fff"/>
                    <path id="Trazado_99276" data-name="Trazado 99276" d="M1.142.546a.559.559,0,0,1-.571.546A.56.56,0,0,1,0,.546.56.56,0,0,1,.571,0,.559.559,0,0,1,1.142.546Z" transform="translate(10.277 0)" fill="#fff"/>
                    <path id="Trazado_99277" data-name="Trazado 99277" d="M1.142.546a.559.559,0,0,1-.571.546A.559.559,0,0,1,0,.546.559.559,0,0,1,.571,0,.559.559,0,0,1,1.142.546Z" transform="translate(15.416 0)" fill="#fff"/>
                    <path id="Trazado_99278" data-name="Trazado 99278" d="M1.142.546a.559.559,0,0,1-.571.546A.559.559,0,0,1,0,.546.559.559,0,0,1,.571,0,.559.559,0,0,1,1.142.546Z" transform="translate(20.555 0)" fill="#fff"/>
                    <path id="Trazado_99279" data-name="Trazado 99279" d="M1.142.546a.559.559,0,0,1-.571.546A.56.56,0,0,1,0,.546.56.56,0,0,1,.571,0,.559.559,0,0,1,1.142.546Z" transform="translate(25.694 0)" fill="#fff"/>
                    <path id="Trazado_99280" data-name="Trazado 99280" d="M1.142.546a.56.56,0,0,1-.571.546A.559.559,0,0,1,0,.546.559.559,0,0,1,.571,0,.56.56,0,0,1,1.142.546Z" transform="translate(30.833 0)" fill="#fff"/>
                    <path id="Trazado_99281" data-name="Trazado 99281" d="M1.142.546a.559.559,0,0,1-.571.546A.559.559,0,0,1,0,.546.559.559,0,0,1,.571,0,.559.559,0,0,1,1.142.546Z" transform="translate(35.971 0)" fill="#fff"/>
                    <path id="Trazado_99282" data-name="Trazado 99282" d="M1.142.546a.559.559,0,0,1-.571.546A.56.56,0,0,1,0,.546.56.56,0,0,1,.571,0,.559.559,0,0,1,1.142.546Z" transform="translate(41.11 0)" fill="#fff"/>
                    <path id="Trazado_99283" data-name="Trazado 99283" d="M1.142.546a.56.56,0,0,1-.571.546A.559.559,0,0,1,0,.546.559.559,0,0,1,.571,0,.56.56,0,0,1,1.142.546Z" transform="translate(46.249 0)" fill="#fff"/>
                    <path id="Trazado_99284" data-name="Trazado 99284" d="M1.142.546a.559.559,0,0,1-.571.546A.559.559,0,0,1,0,.546.559.559,0,0,1,.571,0,.559.559,0,0,1,1.142.546Z" transform="translate(51.388 0)" fill="#fff"/>
                  </g>
                  <g id="Grupo_53316" data-name="Grupo 53316" transform="translate(0 43.683)">
                    <ellipse id="Elipse_3980" data-name="Elipse 3980" cx="0.571" cy="0.546" rx="0.571" ry="0.546" transform="translate(0 0)" fill="#fff"/>
                    <path id="Trazado_99285" data-name="Trazado 99285" d="M1.142.546a.559.559,0,0,1-.571.546A.559.559,0,0,1,0,.546.559.559,0,0,1,.571,0,.559.559,0,0,1,1.142.546Z" transform="translate(5.139)" fill="#fff"/>
                    <ellipse id="Elipse_3981" data-name="Elipse 3981" cx="0.571" cy="0.546" rx="0.571" ry="0.546" transform="translate(10.278 0)" fill="#fff"/>
                    <path id="Trazado_99286" data-name="Trazado 99286" d="M1.142.546a.559.559,0,0,1-.571.546A.559.559,0,0,1,0,.546.559.559,0,0,1,.571,0,.559.559,0,0,1,1.142.546Z" transform="translate(15.416)" fill="#fff"/>
                    <path id="Trazado_99287" data-name="Trazado 99287" d="M1.142.546a.559.559,0,0,1-.571.546A.559.559,0,0,1,0,.546.559.559,0,0,1,.571,0,.559.559,0,0,1,1.142.546Z" transform="translate(20.555)" fill="#fff"/>
                    <ellipse id="Elipse_3982" data-name="Elipse 3982" cx="0.571" cy="0.546" rx="0.571" ry="0.546" transform="translate(25.694 0)" fill="#fff"/>
                    <path id="Trazado_99288" data-name="Trazado 99288" d="M1.142.546a.559.559,0,0,1-.571.546A.559.559,0,0,1,0,.546.559.559,0,0,1,.571,0,.56.56,0,0,1,1.142.546Z" transform="translate(30.833)" fill="#fff"/>
                    <ellipse id="Elipse_3983" data-name="Elipse 3983" cx="0.571" cy="0.546" rx="0.571" ry="0.546" transform="translate(35.972 0)" fill="#fff"/>
                    <ellipse id="Elipse_3984" data-name="Elipse 3984" cx="0.571" cy="0.546" rx="0.571" ry="0.546" transform="translate(41.11 0)" fill="#fff"/>
                    <path id="Trazado_99289" data-name="Trazado 99289" d="M1.142.546a.559.559,0,0,1-.571.546A.559.559,0,0,1,0,.546.559.559,0,0,1,.571,0,.56.56,0,0,1,1.142.546Z" transform="translate(46.249)" fill="#fff"/>
                    <path id="Trazado_99290" data-name="Trazado 99290" d="M1.142.546a.559.559,0,0,1-.571.546A.559.559,0,0,1,0,.546.559.559,0,0,1,.571,0,.559.559,0,0,1,1.142.546Z" transform="translate(51.388)" fill="#fff"/>
                  </g>
                  <g id="Grupo_53317" data-name="Grupo 53317" transform="translate(0 48.052)">
                    <ellipse id="Elipse_3985" data-name="Elipse 3985" cx="0.571" cy="0.546" rx="0.571" ry="0.546" transform="translate(0 0)" fill="#fff"/>
                    <path id="Trazado_99291" data-name="Trazado 99291" d="M1.142.546a.559.559,0,0,1-.571.546A.559.559,0,0,1,0,.546.559.559,0,0,1,.571,0,.559.559,0,0,1,1.142.546Z" transform="translate(5.139)" fill="#fff"/>
                    <ellipse id="Elipse_3986" data-name="Elipse 3986" cx="0.571" cy="0.546" rx="0.571" ry="0.546" transform="translate(10.278 0)" fill="#fff"/>
                    <path id="Trazado_99292" data-name="Trazado 99292" d="M1.142.546a.559.559,0,0,1-.571.546A.559.559,0,0,1,0,.546.559.559,0,0,1,.571,0,.559.559,0,0,1,1.142.546Z" transform="translate(15.416)" fill="#fff"/>
                    <path id="Trazado_99293" data-name="Trazado 99293" d="M1.142.546a.559.559,0,0,1-.571.546A.559.559,0,0,1,0,.546.559.559,0,0,1,.571,0,.559.559,0,0,1,1.142.546Z" transform="translate(20.555)" fill="#fff"/>
                    <ellipse id="Elipse_3987" data-name="Elipse 3987" cx="0.571" cy="0.546" rx="0.571" ry="0.546" transform="translate(25.694 0)" fill="#fff"/>
                    <path id="Trazado_99294" data-name="Trazado 99294" d="M1.142.546a.559.559,0,0,1-.571.546A.559.559,0,0,1,0,.546.559.559,0,0,1,.571,0,.559.559,0,0,1,1.142.546Z" transform="translate(30.833)" fill="#fff"/>
                    <ellipse id="Elipse_3988" data-name="Elipse 3988" cx="0.571" cy="0.546" rx="0.571" ry="0.546" transform="translate(35.972 0)" fill="#fff"/>
                    <ellipse id="Elipse_3989" data-name="Elipse 3989" cx="0.571" cy="0.546" rx="0.571" ry="0.546" transform="translate(41.11 0)" fill="#fff"/>
                    <path id="Trazado_99295" data-name="Trazado 99295" d="M1.142.546a.559.559,0,0,1-.571.546A.559.559,0,0,1,0,.546.559.559,0,0,1,.571,0,.559.559,0,0,1,1.142.546Z" transform="translate(46.249)" fill="#fff"/>
                    <path id="Trazado_99296" data-name="Trazado 99296" d="M1.142.546a.559.559,0,0,1-.571.546A.559.559,0,0,1,0,.546.559.559,0,0,1,.571,0,.559.559,0,0,1,1.142.546Z" transform="translate(51.388)" fill="#fff"/>
                  </g>
                </g>
              </g>
              <line id="Línea_138" data-name="Línea 138" y2="79.828" transform="translate(4.399 66.839) rotate(-90)" fill="none" stroke="#31313c" stroke-linecap="round" stroke-width="4" stroke-dasharray="8"/>
            </g>
          </g>
        </g>
        <g id="Grupo_1026386" data-name="Grupo 1026386" transform="translate(16.247 2.585)">
          <path id="Trazado_151731-2" data-name="Trazado 151731" d="M9.747,4.1A5.643,5.643,0,1,1,4.1,9.747,5.649,5.649,0,0,1,9.747,4.1m0-4.1a9.747,9.747,0,1,0,9.747,9.747A9.747,9.747,0,0,0,9.747,0Z" transform="translate(116.833 0)" fill="#ffce79"/>
          <path id="Trazado_151731-3" data-name="Trazado 151731" d="M9.747,4.1A5.643,5.643,0,1,1,4.1,9.747,5.649,5.649,0,0,1,9.747,4.1m0-4.1a9.747,9.747,0,1,0,9.747,9.747A9.747,9.747,0,0,0,9.747,0Z" transform="translate(4.057 19.494)" fill="#ec5aca"/>
          <g id="Grupo_1015172" data-name="Grupo 1015172" transform="translate(83.63 45.607)">
            <g id="Grupo_80145" data-name="Grupo 80145" transform="translate(4.055)">
              <path id="Trazado_151662" data-name="Trazado 151662" d="M-12997.418-11381.444v3.128" transform="translate(12997.418 11386.431)" fill="none" stroke="#31313c" stroke-linecap="round" stroke-width="2"/>
              <path id="Trazado_151663" data-name="Trazado 151663" d="M-12997.418-11381.444v3.128" transform="translate(12997.418 11381.444)" fill="none" stroke="#31313c" stroke-linecap="round" stroke-width="2"/>
            </g>
            <g id="Grupo_80146" data-name="Grupo 80146" transform="translate(8.114 4.056) rotate(90)">
              <path id="Trazado_151662-2" data-name="Trazado 151662" d="M0,2.549V0" transform="translate(0 0)" fill="none" stroke="#31313c" stroke-linecap="round" stroke-width="2"/>
              <path id="Trazado_151663-2" data-name="Trazado 151663" d="M0,1.989V0" transform="translate(0 6.124)" fill="none" stroke="#31313c" stroke-linecap="round" stroke-width="2"/>
            </g>
          </g>
          <g id="Grupo_1015212" data-name="Grupo 1015212" transform="translate(0 104.967)">
            <g id="Grupo_80145-2" data-name="Grupo 80145" transform="translate(4.055)">
              <path id="Trazado_151662-3" data-name="Trazado 151662" d="M-12997.418-11381.444v3.128" transform="translate(12997.418 11386.431)" fill="none" stroke="#31313c" stroke-linecap="round" stroke-width="2"/>
              <path id="Trazado_151663-3" data-name="Trazado 151663" d="M-12997.418-11381.444v3.128" transform="translate(12997.418 11381.444)" fill="none" stroke="#31313c" stroke-linecap="round" stroke-width="2"/>
            </g>
            <g id="Grupo_80146-2" data-name="Grupo 80146" transform="translate(8.114 4.056) rotate(90)">
              <path id="Trazado_151662-4" data-name="Trazado 151662" d="M0,2.549V0" transform="translate(0 0)" fill="none" stroke="#31313c" stroke-linecap="round" stroke-width="2"/>
              <path id="Trazado_151663-4" data-name="Trazado 151663" d="M0,1.989V0" transform="translate(0 6.124)" fill="none" stroke="#31313c" stroke-linecap="round" stroke-width="2"/>
            </g>
          </g>
        </g>
        <g id="Grupo_1114174" data-name="Grupo 1114174" transform="translate(0 71.794)" opacity="0.51">
          <g id="Grupo_1114042" data-name="Grupo 1114042" transform="translate(0 0)" clip-path="url(#clip-path-2)">
            <path id="Trazado_911486" data-name="Trazado 911486" d="M4.313,47.156H.77a.77.77,0,0,1-.77-.77V23.623a.77.77,0,0,1,.77-.77H4.313a.77.77,0,0,1,.77.77V46.386a.77.77,0,0,1-.77.77" transform="translate(0 -15.024)" fill="#e2e2e2"/>
            <path id="Trazado_911487" data-name="Trazado 911487" d="M32.923,53.764H29.38a.77.77,0,0,1-.77-.77V33.674a.77.77,0,0,1,.77-.77h3.543a.77.77,0,0,1,.77.77v19.32a.77.77,0,0,1-.77.77" transform="translate(-18.809 -21.632)" fill="#e2e2e2"/>
            <path id="Trazado_911488" data-name="Trazado 911488" d="M61.533,40.7H57.99a.77.77,0,0,1-.77-.77V13.8a.77.77,0,0,1,.77-.77h3.543a.77.77,0,0,1,.77.77V39.929a.77.77,0,0,1-.77.77" transform="translate(-37.618 -8.567)" fill="#e2e2e2"/>
            <path id="Trazado_911489" data-name="Trazado 911489" d="M90.143,32.132H86.6a.77.77,0,0,1-.77-.77V.77A.77.77,0,0,1,86.6,0h3.543a.77.77,0,0,1,.77.77V31.362a.77.77,0,0,1-.77.77" transform="translate(-56.427 0)" fill="#e2e2e2"/>
            <path id="Trazado_911490" data-name="Trazado 911490" d="M118.753,58.6H115.21a.77.77,0,0,1-.77-.77v-16.8a.77.77,0,0,1,.77-.77h3.543a.77.77,0,0,1,.77.77v16.8a.77.77,0,0,1-.77.77" transform="translate(-75.236 -26.472)" fill="#e2e2e2"/>
            <path id="Trazado_911491" data-name="Trazado 911491" d="M147.363,47.156H143.82a.77.77,0,0,1-.77-.77V23.623a.77.77,0,0,1,.77-.77h3.543a.77.77,0,0,1,.77.77V46.386a.77.77,0,0,1-.77.77" transform="translate(-94.045 -15.024)" fill="#e2e2e2"/>
          </g>
        </g>
        <g id="Grupo_1114175" data-name="Grupo 1114175" transform="translate(12.206 66.415)">
          <g id="Grupo_1114060" data-name="Grupo 1114060" clip-path="url(#clip-path-3)">
            <g id="Grupo_1114045" data-name="Grupo 1114045" transform="translate(0.171 0.171)">
              <g id="Grupo_1114044" data-name="Grupo 1114044" clip-path="url(#clip-path-4)">
                <path id="Trazado_1307450" data-name="Trazado 1307450" d="M0,0H46.011V46.011H0Z" transform="matrix(0.571, -0.821, 0.821, 0.571, -15.49, 22.297)" fill="#12263f"/>
              </g>
            </g>
            <g id="Grupo_1114047" data-name="Grupo 1114047" transform="translate(0 0)">
              <g id="Grupo_1114046" data-name="Grupo 1114046" clip-path="url(#clip-path-3)">
                <path id="Trazado_911493" data-name="Trazado 911493" d="M.5,17.029h0A16.529,16.529,0,1,0,17.029.5,16.529,16.529,0,0,0,.5,17.029h0A16.529,16.529,0,1,1,17.029,33.558,16.529,16.529,0,0,1,.5,17.029Z" transform="translate(-0.329 -0.329)" fill="url(#linear-gradient)"/>
              </g>
            </g>
            <g id="Grupo_1114049" data-name="Grupo 1114049" transform="translate(4.545 4.544)">
              <g id="Grupo_1114048" data-name="Grupo 1114048" clip-path="url(#clip-path-6)">
                <rect id="Rectángulo_406252" data-name="Rectángulo 406252" width="24.312" height="24.312" transform="translate(0 0)" fill="url(#radial-gradient)"/>
              </g>
            </g>
            <g id="Grupo_1114051" data-name="Grupo 1114051" transform="translate(8.918 8.917)">
              <g id="Grupo_1114050" data-name="Grupo 1114050" clip-path="url(#clip-path-7)">
                <rect id="Rectángulo_406253" data-name="Rectángulo 406253" width="21.233" height="21.233" transform="translate(-6.699 11.744) rotate(-60.299)" fill="#12263f"/>
              </g>
            </g>
            <g id="Grupo_1114053" data-name="Grupo 1114053" transform="translate(13.291 13.291)">
              <g id="Grupo_1114052" data-name="Grupo 1114052" clip-path="url(#clip-path-8)">
                <rect id="Rectángulo_406254" data-name="Rectángulo 406254" width="6.819" height="6.819" transform="translate(0 0)" fill="url(#radial-gradient-2)"/>
              </g>
            </g>
            <g id="Grupo_1114055" data-name="Grupo 1114055" transform="translate(0 0)">
              <g id="Grupo_1114054" data-name="Grupo 1114054" clip-path="url(#clip-path-3)">
                <path id="Trazado_911497" data-name="Trazado 911497" d="M48.336,27,67.831,15.8a.171.171,0,1,1,.171.3L48.507,27.3a.171.171,0,0,1-.171-.3" transform="translate(-31.721 -10.374)" fill="#12263f"/>
              </g>
            </g>
            <g id="Grupo_1114057" data-name="Grupo 1114057" transform="translate(33.688 1.068)">
              <g id="Grupo_1114056" data-name="Grupo 1114056" clip-path="url(#clip-path-10)">
                <rect id="Rectángulo_406256" data-name="Rectángulo 406256" width="10.227" height="9.742" transform="translate(-2.879 1.667) rotate(-30.065)" fill="#12263f"/>
              </g>
            </g>
          </g>
        </g>
      </g>
    </g>
    <g id="Grupo_1220167" data-name="Grupo 1220167" transform="translate(447.628 1422.692)">
      <circle id="Elipse_13612" data-name="Elipse 13612" cx="51.621" cy="51.621" r="51.621" fill="#c2d0f8"/>
      <circle id="Elipse_13613" data-name="Elipse 13613" cx="41.174" cy="41.174" r="41.174" transform="translate(10.447 10.447)" fill="#fff"/>
      <text id="_03" data-name="03" transform="translate(25.581 66.207)" fill="#12263f" font-size="43" font-family="Roboto-Black, Roboto" font-weight="800"><tspan x="0" y="0">03</tspan></text>
    </g>
    <g id="Grupo_1229632" data-name="Grupo 1229632" transform="translate(516.748 1491.799)">
      <g id="Grupo_1101659" data-name="Grupo 1101659" clip-path="url(#clip-path-11)">
        <g id="Grupo_1101658" data-name="Grupo 1101658" transform="translate(0 0)">
          <g id="Grupo_1101657" data-name="Grupo 1101657" clip-path="url(#clip-path-11)">
            <g id="Grupo_1101650" data-name="Grupo 1101650" transform="translate(20.994 13.193)" opacity="0.09" style="mix-blend-mode: multiply;isolation: isolate">
              <g id="Grupo_1101649" data-name="Grupo 1101649">
                <g id="Grupo_1101648" data-name="Grupo 1101648" clip-path="url(#clip-path-13)">
                  <path id="Trazado_874456" data-name="Trazado 874456" d="M96.011,41.436a8.763,8.763,0,0,0-12.373,2.728,9.484,9.484,0,0,0-1.383,6.1c-2.462.449-10.2,1.981-15.756,4.427a1.165,1.165,0,0,0-.665,1.269c.051.3.118.639.2.989a1.109,1.109,0,0,0,1.332.84,114.487,114.487,0,0,0,15.509-5.045,9.155,9.155,0,0,0,3.395,4.228,8.763,8.763,0,0,0,12.374-2.728,9.463,9.463,0,0,0-2.634-12.812" transform="translate(-65.817 -39.942)" fill="#17014e"/>
                </g>
              </g>
            </g>
            <path id="Trazado_874457" data-name="Trazado 874457" d="M80.573,64.745S70.86,67.111,64.4,70.557a1.172,1.172,0,0,0-.573,1.316c.072.292.163.629.27.971a1.1,1.1,0,0,0,1.388.736A115.144,115.144,0,0,0,81.323,67Z" transform="translate(-43.441 -43.361)" fill="#cccaff"/>
            <path id="Trazado_874458" data-name="Trazado 874458" d="M84.142,75.8c1.072-.416,2.247-.891,3.5-1.426a21.6,21.6,0,0,0-.878-3.406c-1.145.38-2.356.806-3.573,1.271a19.064,19.064,0,0,0,.95,3.56" transform="translate(-56.656 -47.526)" fill="#3a257a"/>
            <path id="Trazado_874459" data-name="Trazado 874459" d="M130.259,45.77a9.435,9.435,0,0,0-3.536-12.577,8.789,8.789,0,0,0-12.147,3.661,9.435,9.435,0,0,0,3.536,12.577,8.789,8.789,0,0,0,12.147-3.661" transform="translate(-77.276 -21.463)" fill="#12263f"/>
            <path id="Trazado_874460" data-name="Trazado 874460" d="M132.694,48.868a7.4,7.4,0,0,0-2.771-9.857,6.888,6.888,0,0,0-9.52,2.869,7.4,7.4,0,0,0,2.771,9.857,6.888,6.888,0,0,0,9.52-2.869" transform="translate(-81.407 -25.525)" fill="#d6ceff"/>
            <path id="Trazado_874461" data-name="Trazado 874461" d="M113.671,63.418a9.543,9.543,0,0,0,1.142,3.547" transform="translate(-77.413 -42.472)" fill="none" stroke="#17014e" stroke-linecap="round" stroke-linejoin="round" stroke-width="1"/>
            <path id="Trazado_874462" data-name="Trazado 874462" d="M136.522,48.869a7.4,7.4,0,0,0-2.771-9.857,6.843,6.843,0,0,0-8.593,1.517v.382h1.11v1.149h1.11V43.21h1.11v1.149h1.11v1.149h1.11v1.149H129.6v1.149h-1.11v1.149h-1.11v1.149h-1.11v1.149a7.069,7.069,0,0,0,.735.483,6.888,6.888,0,0,0,9.52-2.869" transform="translate(-85.235 -25.526)" fill="#7f7aff"/>
            <g id="Grupo_1101653" data-name="Grupo 1101653" transform="translate(39.926 13.704)" style="mix-blend-mode: soft-light;isolation: isolate">
              <g id="Grupo_1101652" data-name="Grupo 1101652">
                <g id="Grupo_1101651" data-name="Grupo 1101651" clip-path="url(#clip-path-14)">
                  <path id="Trazado_874463" data-name="Trazado 874463" d="M128.289,41.6c-1.779.486-3.307,2.337-3.1,3.619s1.414,1.206,1.935.258.416-1.691,1.55-2.143,1.664-2.294-.385-1.734" transform="translate(-125.17 -41.492)" fill="#fff"/>
                </g>
              </g>
            </g>
            <ellipse id="Elipse_11512" data-name="Elipse 11512" cx="0.692" cy="0.716" rx="0.692" ry="0.716" transform="translate(47.264 19.794)" fill="none" stroke="#17014e" stroke-linecap="round" stroke-linejoin="round" stroke-width="1"/>
            <path id="Trazado_874464" data-name="Trazado 874464" d="M122.287,34.626c1.067-4.5-1.988-14.312-13.14-12.18" transform="translate(-74.332 -14.832)" fill="none" stroke="#17014e" stroke-linecap="round" stroke-linejoin="round" stroke-width="1"/>
            <g id="Grupo_1101656" data-name="Grupo 1101656" transform="translate(1.334 0.896)" opacity="0.09" style="mix-blend-mode: multiply;isolation: isolate">
              <g id="Grupo_1101655" data-name="Grupo 1101655">
                <g id="Grupo_1101654" data-name="Grupo 1101654" clip-path="url(#clip-path-15)">
                  <path id="Trazado_874465" data-name="Trazado 874465" d="M36.138,18.651A254.281,254.281,0,0,1,7.368,17.488a3.418,3.418,0,0,1-3.042-3.2,70.868,70.868,0,0,1-.042-8.3A3.4,3.4,0,0,1,7.706,2.714c9.336.215,18.719.441,28.57.776a3.392,3.392,0,0,1,3.228,3.1,44.608,44.608,0,0,1-.076,8.995,3.4,3.4,0,0,1-3.289,3.063" transform="translate(-4.182 -2.713)" fill="#17014e"/>
                </g>
              </g>
            </g>
            <path id="Trazado_874466" data-name="Trazado 874466" d="M32.36,15.153a254.275,254.275,0,0,1-28.792.137A3.4,3.4,0,0,1,.393,12.23,70.952,70.952,0,0,1,0,3.944,3.41,3.41,0,0,1,3.283.515C12.619.308,22,.11,31.859,0a3.379,3.379,0,0,1,3.355,2.953,44.589,44.589,0,0,1,.3,8.99,3.409,3.409,0,0,1-3.157,3.209" transform="translate(0 0)" fill="#fff"/>
            <path id="Trazado_874467" data-name="Trazado 874467" d="M4.912,38.8a3.314,3.314,0,0,0,2,.814,254.274,254.274,0,0,0,28.792-.137,3.407,3.407,0,0,0,3.151-3.158,4.535,4.535,0,0,1-2.481,1.894,11.946,11.946,0,0,1-3.9.387c-9.212-.1-18.424-.2-27.564.2" transform="translate(-3.345 -24.321)" fill="#7f7aff"/>
            <path id="Trazado_874468" data-name="Trazado 874468" d="M35.53,43.041c-8.732-.1-17.464-.188-26.134.141" transform="translate(-6.399 -28.765)" fill="none" stroke="#17014e" stroke-linecap="round" stroke-linejoin="round" stroke-width="1"/>
            <path id="Trazado_874469" data-name="Trazado 874469" d="M101.647,38.9a4.882,4.882,0,0,1-1.785,1.04,7.675,7.675,0,0,1-1.728.338" transform="translate(-66.831 -26.052)" fill="none" stroke="#17014e" stroke-linecap="round" stroke-linejoin="round" stroke-width="1"/>
            <path id="Trazado_874470" data-name="Trazado 874470" d="M20.911,9.67h-9.4a.776.776,0,0,1,0-1.551h9.4a.776.776,0,0,1,0,1.551" transform="translate(-7.326 -5.437)" fill="#ffce79"/>
            <path id="Trazado_874471" data-name="Trazado 874471" d="M68.827,9.67H66.913a.776.776,0,0,1,0-1.551h1.914a.776.776,0,0,1,0,1.551" transform="translate(-45.059 -5.437)" fill="#ffce79"/>
            <path id="Trazado_874472" data-name="Trazado 874472" d="M93.61,9.67H91.7a.776.776,0,0,1,0-1.551H93.61a.776.776,0,0,1,0,1.551" transform="translate(-61.937 -5.437)" fill="#ffce79"/>
            <line id="Línea_3829" data-name="Línea 3829" x2="15.172" transform="translate(3.431 7.395)" fill="none" stroke="#17014e" stroke-linecap="round" stroke-linejoin="round" stroke-width="1"/>
            <line id="Línea_3830" data-name="Línea 3830" x2="8.636" transform="translate(3.431 9.722)" fill="none" stroke="#17014e" stroke-linecap="round" stroke-linejoin="round" stroke-width="1"/>
            <line id="Línea_3831" data-name="Línea 3831" x2="1.81" transform="translate(25.928 8.543)" fill="none" stroke="#17014e" stroke-linecap="round" stroke-linejoin="round" stroke-width="1"/>
            <path id="Trazado_874473" data-name="Trazado 874473" d="M84.626,23.739l.744.7-.744.784" transform="translate(-57.632 -15.898)" fill="none" stroke="#17014e" stroke-linecap="round" stroke-linejoin="round" stroke-width="1"/>
            <path id="Trazado_874474" data-name="Trazado 874474" d="M69.568,21.273H68.275v1.339H66.982v1.339h-.818v.258a.886.886,0,0,0,.87.9h1.671a.886.886,0,0,0,.87-.9V21.291c0-.026-.005-.051-.007-.076Z" transform="translate(-45.059 -14.208)" fill="#7f7aff"/>
            <rect id="Rectángulo_402525" data-name="Rectángulo 402525" width="3.412" height="4.721" rx="1.706" transform="translate(21.105 6.182)" fill="none" stroke="#17014e" stroke-linecap="round" stroke-linejoin="round" stroke-width="1"/>
            <path id="Trazado_874475" data-name="Trazado 874475" d="M94.359,20.837a.927.927,0,0,0-.053-.3h-.762v1H92.58v1h-.963v1h-.671v.229a.886.886,0,0,0,.87.9h1.671a.886.886,0,0,0,.871-.9Z" transform="translate(-61.937 -13.754)" fill="#7f7aff"/>
            <rect id="Rectángulo_402526" data-name="Rectángulo 402526" width="3.412" height="4.721" rx="1.706" transform="translate(29.01 6.182)" fill="none" stroke="#17014e" stroke-linecap="round" stroke-linejoin="round" stroke-width="1"/>
          </g>
        </g>
      </g>
    </g>
  </g>
</svg>
