<svg xmlns="http://www.w3.org/2000/svg" width="104" height="104" viewBox="0 0 104 104">
  <g id="Grupo_1230902" data-name="Grupo 1230902" transform="translate(-285.051 -1539)">
    <g id="Grupo_1230891" data-name="Grupo 1230891" transform="translate(104)">
      <circle id="Elipse_13771" data-name="Elipse 13771" cx="52" cy="52" r="52" transform="translate(181.051 1539)" fill="#c2d0f8"/>
      <circle id="Elipse_13772" data-name="Elipse 13772" cx="40" cy="40" r="40" transform="translate(193.051 1551)" fill="#f1f6ff"/>
    </g>
    <path id="Trazado_1307451" data-name="Trazado 1307451" d="M8.608-10.27V0H2.6V-29.148H13.974a13.156,13.156,0,0,1,5.776,1.2,8.851,8.851,0,0,1,3.834,3.413A9.517,9.517,0,0,1,24.924-19.5a8.369,8.369,0,0,1-2.933,6.757q-2.933,2.472-8.118,2.472Zm0-4.865h5.365a5.276,5.276,0,0,0,3.634-1.121,4.077,4.077,0,0,0,1.251-3.2A4.808,4.808,0,0,0,17.6-22.922a4.711,4.711,0,0,0-3.483-1.361H8.608Z" transform="translate(325.051 1605)" fill="#12263f"/>
  </g>
</svg>
