<svg xmlns="http://www.w3.org/2000/svg" width="72" height="72" viewBox="0 0 72 72">
  <g id="Grupo_1230901" data-name="Grupo 1230901" transform="translate(-483.051 -1136)">
    <circle id="Elipse_13612" data-name="Elipse 13612" cx="36" cy="36" r="36" transform="translate(483.051 1136)" fill="#c2d0f8"/>
    <circle id="Elipse_13613" data-name="Elipse 13613" cx="29" cy="29" r="29" transform="translate(490.051 1143)" fill="#fff"/>
    <path id="Trazado_1307451" data-name="Trazado 1307451" d="M17.188-9.3q0,4.609-2.07,7.109A7.154,7.154,0,0,1,9.281.313,7.193,7.193,0,0,1,3.406-2.2Q1.328-4.719,1.328-9.3v-4.156q0-4.609,2.07-7.109a7.172,7.172,0,0,1,5.852-2.5,7.175,7.175,0,0,1,5.859,2.516q2.078,2.516,2.078,7.109Zm-5.266-4.828a8.114,8.114,0,0,0-.641-3.664A2.141,2.141,0,0,0,9.25-19a2.091,2.091,0,0,0-1.977,1.125,7.644,7.644,0,0,0-.664,3.406v5.813A8.175,8.175,0,0,0,7.25-4.93,2.149,2.149,0,0,0,9.281-3.75,2.121,2.121,0,0,0,11.266-4.9a7.8,7.8,0,0,0,.656-3.6ZM31.594,0H26.313V-16.812L21.125-15.3v-4l9.984-3.453h.484Z" transform="translate(500.051 1182)" fill="#c2d0f8"/>
  </g>
</svg>
